<svg version="1.1" xmlns="http://www.w3.org/2000/svg" viewBox="0 0 1503.0224475610257 807.5" width="1503.0224475610257" height="807.5">
  <!-- svg-source:excalidraw -->
  
  <defs>
    <style class="style-fonts">
      @font-face {
        font-family: "Virgil";
        src: url("https://excalidraw.com/Virgil.woff2");
      }
      @font-face {
        font-family: "Cascadia";
        src: url("https://excalidraw.com/Cascadia.woff2");
      }
    </style>
    
  </defs>
  <rect x="0" y="0" width="1503.0224475610257" height="807.5" fill="#ffffff"></rect><g stroke-linecap="round"><g transform="translate(114.96030875414601 32.074141875542864) rotate(0 0.6161279935390098 162.03033423578358)"><path d="M-1.11 1.1 C-0.73 54.65, 1.8 268.54, 2.35 321.93 M0.5 0.63 C0.76 54.32, 1.42 269.79, 1.58 323.43" stroke="#1e1e1e" stroke-width="1" fill="none"></path></g><g transform="translate(114.96030875414601 32.074141875542864) rotate(0 0.6161279935390098 162.03033423578358)"><path d="M11.28 29.76 C5.98 20.85, 1.94 11.4, -0.23 -0.32 M8.72 28.7 C6.42 20.92, 2.63 10.93, -1.34 1.94" stroke="#1e1e1e" stroke-width="1" fill="none"></path></g><g transform="translate(114.96030875414601 32.074141875542864) rotate(0 0.6161279935390098 162.03033423578358)"><path d="M-9.24 29.98 C-8.34 21.19, -6.17 11.67, -0.23 -0.32 M-11.8 28.91 C-7.73 21.23, -5.17 11.17, -1.34 1.94" stroke="#1e1e1e" stroke-width="1" fill="none"></path></g></g><mask></mask><g stroke-linecap="round"><g transform="translate(454.9603087541459 333.07414187554286) rotate(0 -199.18400072990914 0.7487799853645356)"><path d="M0.35 -0.07 C-65.78 -0.02, -331.39 0.99, -397.85 1.42 M-0.93 -1.16 C-67.1 -0.44, -332.3 2.38, -398.71 2.65" stroke="#1e1e1e" stroke-width="1" fill="none"></path></g><g transform="translate(454.9603087541459 333.07414187554286) rotate(0 -199.18400072990914 0.7487799853645356)"><path d="M-27.93 10.54 C-23.04 7.35, -15.35 4.48, 0.55 1.22 M-27.38 10.81 C-21.61 7.38, -15.53 6.68, -0.51 0.34" stroke="#1e1e1e" stroke-width="1" fill="none"></path></g><g transform="translate(454.9603087541459 333.07414187554286) rotate(0 -199.18400072990914 0.7487799853645356)"><path d="M-28 -9.98 C-22.9 -8.92, -15.21 -7.53, 0.55 1.22 M-27.45 -9.71 C-21.81 -8.61, -15.72 -4.77, -0.51 0.34" stroke="#1e1e1e" stroke-width="1" fill="none"></path></g></g><mask></mask><g stroke-linecap="round"><g transform="translate(114.96030875414601 253.07414187554286) rotate(0 45.67670051769352 -0.29152763152501393)"><path d="M0.15 -0.58 C15.53 -0.65, 77.25 -0.42, 92.58 -0.47 M-1.22 1.73 C13.92 1.31, 75.44 -2.11, 91.41 -2.31" stroke="#2f9e44" stroke-width="1" fill="none"></path></g></g><mask></mask><g stroke-linecap="round"><g transform="translate(205.960308754146 252.07414187554286) rotate(0 36.99327227861619 -56.67441402263944)"><path d="M-0.42 0.53 C11.58 -18.35, 59.78 -94.63, 72.15 -113.88 M1.56 -0.24 C13.92 -18.86, 62.43 -93.3, 74.41 -112.28" stroke="#2f9e44" stroke-width="1" fill="none"></path></g></g><mask></mask><g stroke-linecap="round"><g transform="translate(279.9603087541459 139.07414187554286) rotate(0 74.96071317382155 -1.4143864590676003)"><path d="M-0.85 0.12 C24.34 -0.46, 125.78 -2.5, 150.78 -2.95 M0.9 -0.86 C26.04 -1.37, 125.12 -1.79, 150.24 -1.91" stroke="#2f9e44" stroke-width="1" fill="none"></path></g></g><mask></mask><g stroke-linecap="round"><g transform="translate(293.9603087541459 138.07414187554286) rotate(0 -1.0487656455487127 96.23352371864007)"><path d="M0.78 -0.95 C0.44 31.27, -2.5 160.82, -2.87 193.42" stroke="#1e1e1e" stroke-width="1.5" fill="none" stroke-dasharray="8 9"></path></g></g><mask></mask><g stroke-linecap="round"><g transform="translate(230.9603087541459 215.07414187554286) rotate(0 -2.176577518507827 60.026604108139736)"><path d="M-0.87 -0.58 C-1.58 19.68, -2.94 100.69, -3.48 120.64" stroke="#1e1e1e" stroke-width="1.5" fill="none" stroke-dasharray="8 9"></path></g></g><mask></mask><g stroke-linecap="round"><g transform="translate(278.9603087541459 138.07414187554286) rotate(0 -79.29309598021212 0.8639391820877336)"><path d="M0.52 0.64 C-25.85 0.92, -132.47 0.7, -159.11 1.09" stroke="#1e1e1e" stroke-width="1.5" fill="none" stroke-dasharray="8 9"></path></g></g><mask></mask><g stroke-linecap="round"><g transform="translate(226.9603087541459 213.07414187554286) rotate(0 -56.69174144081774 -1.4510897118598223)"><path d="M-0.11 -0.91 C-19.07 -1.35, -94.29 -1.73, -113.28 -1.99" stroke="#1e1e1e" stroke-width="1.5" fill="none" stroke-dasharray="8 9"></path></g></g><mask></mask><g transform="translate(294.9603087541459 353.07414187554286) rotate(0 8.139991760253906 12.5)"><text x="0" y="0" font-family="Virgil, Segoe UI Emoji" font-size="20px" fill="#1e1e1e" text-anchor="start" style="white-space: pre;" direction="ltr" dominant-baseline="text-before-edge">s1</text></g><g transform="translate(90.96030875414601 133.07414187554286) rotate(0 7.939994812011719 12.5)"><text x="0" y="0" font-family="Virgil, Segoe UI Emoji" font-size="20px" fill="#1e1e1e" text-anchor="start" style="white-space: pre;" direction="ltr" dominant-baseline="text-before-edge">v1</text></g><g transform="translate(217.8600082397461 344.99999999999955) rotate(0 10.79998779296875 12.5)"><text x="0" y="0" font-family="Virgil, Segoe UI Emoji" font-size="20px" fill="#1e1e1e" text-anchor="start" style="white-space: pre;" direction="ltr" dominant-baseline="text-before-edge">s1'</text></g><g transform="translate(90.06000518798817 193.99999999999955) rotate(0 10.599990844726562 12.5)"><text x="0" y="0" font-family="Virgil, Segoe UI Emoji" font-size="20px" fill="#1e1e1e" text-anchor="start" style="white-space: pre;" direction="ltr" dominant-baseline="text-before-edge">v1'</text></g><g transform="translate(354 245.5) rotate(0 26.77996826171875 12.5)"><text x="0" y="0" font-family="Virgil, Segoe UI Emoji" font-size="20px" fill="#e03131" text-anchor="start" style="white-space: pre;" direction="ltr" dominant-baseline="text-before-edge">cut s</text></g><g stroke-linecap="round"><g transform="translate(270 323.5) rotate(0 30.213645872473705 -30.50185928158453)"><path d="M0.16 0.02 C10.29 -10.04, 51.52 -50.99, 61.64 -61.02 M-1.21 -1.02 C8.74 -10.81, 50.82 -49.32, 61.03 -59.49" stroke="#e03131" stroke-width="1" fill="none"></path></g><g transform="translate(270 323.5) rotate(0 30.213645872473705 -30.50185928158453)"><path d="M12.97 -26.06 C8.01 -17.26, 4.71 -5.9, 2.08 -0.23 M13.89 -27.78 C8.82 -19.57, 6.13 -12.38, 0.04 -0.59" stroke="#e03131" stroke-width="1" fill="none"></path></g><g transform="translate(270 323.5) rotate(0 30.213645872473705 -30.50185928158453)"><path d="M27.42 -11.5 C17.18 -8.09, 8.51 -2.13, 2.08 -0.23 M28.35 -13.21 C19.32 -8.98, 12.69 -5.76, 0.04 -0.59" stroke="#e03131" stroke-width="1" fill="none"></path></g></g><mask></mask><g stroke-linecap="round"><g transform="translate(113 451.5) rotate(0 0.5122088470562289 161.2478760325164)"><path d="M0.68 -0.07 C0.83 53.72, 1.22 268.57, 1.46 322.07 M-0.42 -1.15 C-0.53 52.9, -0.08 269.84, 0.24 323.64" stroke="#1e1e1e" stroke-width="1" fill="none"></path></g><g transform="translate(113 451.5) rotate(0 0.5122088470562289 161.2478760325164)"><path d="M10.89 27.21 C7.69 18.65, 2.22 9.68, 0 -1.56 M11.24 27.43 C6.71 18.95, 4.66 9.45, 0.32 -0.68" stroke="#1e1e1e" stroke-width="1" fill="none"></path></g><g transform="translate(113 451.5) rotate(0 0.5122088470562289 161.2478760325164)"><path d="M-9.63 27.25 C-5.71 18.56, -4.06 9.57, 0 -1.56 M-9.28 27.48 C-7.19 19.16, -2.62 9.64, 0.32 -0.68" stroke="#1e1e1e" stroke-width="1" fill="none"></path></g></g><mask></mask><g stroke-linecap="round"><g transform="translate(453 752.5) rotate(0 -198.96030875414607 1.2261286136506442)"><path d="M-0.15 -0.97 C-66.18 -0.55, -330.76 1.39, -397.23 1.93 M-1.69 1.13 C-67.72 1.81, -331.95 3, -397.77 3.43" stroke="#1e1e1e" stroke-width="1" fill="none"></path></g><g transform="translate(453 752.5) rotate(0 -198.96030875414607 1.2261286136506442)"><path d="M-29.89 10.78 C-22.31 5.67, -15.78 3.88, 1.84 -0.73 M-28.45 9.21 C-18.39 5.42, -6.43 2.59, 0.54 -1.77" stroke="#1e1e1e" stroke-width="1" fill="none"></path></g><g transform="translate(453 752.5) rotate(0 -198.96030875414607 1.2261286136506442)"><path d="M-30.04 -9.74 C-22.53 -10.46, -15.97 -7.84, 1.84 -0.73 M-28.59 -11.31 C-18.34 -7.32, -6.32 -2.36, 0.54 -1.77" stroke="#1e1e1e" stroke-width="1" fill="none"></path></g></g><mask></mask><g stroke-linecap="round"><g transform="translate(113 672.5) rotate(0 45.58837454558352 -0.04003954817699196)"><path d="M0.01 -1.07 C15.56 -1.15, 77.31 -1.03, 92.62 -1.01 M-1.44 0.98 C13.98 1.15, 75.53 0.62, 91.47 0.52" stroke="#2f9e44" stroke-width="1" fill="none"></path></g></g><mask></mask><g stroke-linecap="round"><g transform="translate(204 671.5) rotate(0 37.23793272264305 -56.93304019063726)"><path d="M1.04 0.98 C13 -17.79, 59.99 -93.9, 72.11 -113.16 M0.12 0.44 C12.43 -18.61, 62.14 -95.84, 74.35 -114.84" stroke="#2f9e44" stroke-width="1" fill="none"></path></g></g><mask></mask><g stroke-linecap="round"><g transform="translate(278 558.5) rotate(0 75.57571365768092 -1.1060300853291665)"><path d="M1.01 -0.97 C25.74 -1.38, 124.05 -1.24, 148.92 -1.49 M0.08 1.13 C25.12 0.29, 126.15 -2.92, 151.07 -3.34" stroke="#2f9e44" stroke-width="1" fill="none"></path></g></g><mask></mask><g stroke-linecap="round"><g transform="translate(292 557.5) rotate(0 -0.38133194036782925 96.32590650506313)"><path d="M0.51 -1.05 C0.39 31.39, -0.74 161.27, -1.27 193.7" stroke="#1e1e1e" stroke-width="1.5" fill="none" stroke-dasharray="8 9"></path></g></g><mask></mask><g stroke-linecap="round"><g transform="translate(277 557.5) rotate(0 -79.15440363474193 0.8821473736315966)"><path d="M0.16 0.78 C-26.15 0.82, -131.97 0.71, -158.47 0.98" stroke="#1e1e1e" stroke-width="1.5" fill="none" stroke-dasharray="8 9"></path></g></g><mask></mask><g transform="translate(293 772.5) rotate(0 8.139991760253906 12.5)"><text x="0" y="0" font-family="Virgil, Segoe UI Emoji" font-size="20px" fill="#1e1e1e" text-anchor="start" style="white-space: pre;" direction="ltr" dominant-baseline="text-before-edge">s1</text></g><g transform="translate(89 552.5) rotate(0 7.939994812011719 12.5)"><text x="0" y="0" font-family="Virgil, Segoe UI Emoji" font-size="20px" fill="#1e1e1e" text-anchor="start" style="white-space: pre;" direction="ltr" dominant-baseline="text-before-edge">v1</text></g><g stroke-linecap="round"><g transform="translate(293 560.5) rotate(0 -30.642561613013925 55.725250330027166)"><path d="M0.16 -0.12 C-10.13 18.6, -50.58 92.63, -61.02 111.43 M-1.21 -1.22 C-11.64 17.73, -51.08 94.01, -61.45 112.67" stroke="#e03131" stroke-width="1" fill="none"></path></g></g><mask></mask><g stroke-linecap="round"><g transform="translate(232 672.5) rotate(0 -30.17666183412075 -0.14638242535306745)"><path d="M0.06 0.76 C-9.81 0.6, -49.37 -0.94, -59.31 -1.05 M-1.37 0.11 C-11.41 0.07, -50.54 -0.3, -60.41 -0.06" stroke="#e03131" stroke-width="1" fill="none"></path></g></g><mask></mask><g stroke-linecap="round"><g transform="translate(171 649.5) rotate(0 -0.049835033069712154 19.068348067989746)"><path d="M0.68 -0.18 C0.44 6.46, -1.15 32.83, -1.11 39.46 M-0.42 -1.32 C-0.34 4.99, 0.85 31.1, 1.01 37.58" stroke="#e03131" stroke-width="1" fill="none"></path></g></g><mask></mask><g transform="translate(19.22003173828125 599) rotate(0 26.77996826171875 12.5)"><text x="0" y="0" font-family="Virgil, Segoe UI Emoji" font-size="20px" fill="#e03131" text-anchor="start" style="white-space: pre;" direction="ltr" dominant-baseline="text-before-edge">cut s</text></g><g stroke-linecap="round"><g transform="translate(145.78635412752624 666.0018592815845) rotate(0 -34.97274637876845 -17.390697659076977)"><path d="M0.02 -0.21 C-11.37 -5.62, -57.47 -27.33, -68.71 -32.98 M-1.43 -1.37 C-12.99 -7.05, -58.89 -29.33, -69.96 -34.57" stroke="#e03131" stroke-width="1" fill="none"></path></g><g transform="translate(145.78635412752624 666.0018592815845) rotate(0 -34.97274637876845 -17.390697659076977)"><path d="M-30.2 -3.98 C-20.21 -1.15, -14.1 -0.94, -0.9 0.57 M-29.04 -3.86 C-21.22 -1.45, -10.29 -1.48, -0.52 0.14" stroke="#e03131" stroke-width="1" fill="none"></path></g><g transform="translate(145.78635412752624 666.0018592815845) rotate(0 -34.97274637876845 -17.390697659076977)"><path d="M-21.4 -22.52 C-13.83 -14.75, -10.07 -9.6, -0.9 0.57 M-20.24 -22.4 C-15.22 -14.16, -7.06 -8.35, -0.52 0.14" stroke="#e03131" stroke-width="1" fill="none"></path></g></g><mask></mask><g stroke-linecap="round"><g transform="translate(1147.2766273292923 458.12585812445695) rotate(0 0.9552959600180202 156.2464636756763)"><path d="M-1.03 0.2 C-0.99 52.28, 0.4 261, 0.73 313.24 M0.63 -0.75 C1 50.89, 2.48 259.2, 2.94 311.27" stroke="#1e1e1e" stroke-width="1" fill="none"></path></g><g transform="translate(1147.2766273292923 458.12585812445695) rotate(0 0.9552959600180202 156.2464636756763)"><path d="M9.71 26.74 C6.15 17.39, 3.27 11, -2.41 -0.48 M10.03 28.04 C6.54 20.62, 3.15 12.73, -0.89 -0.05" stroke="#1e1e1e" stroke-width="1" fill="none"></path></g><g transform="translate(1147.2766273292923 458.12585812445695) rotate(0 0.9552959600180202 156.2464636756763)"><path d="M-10.81 26.85 C-7.39 17.64, -3.28 11.21, -2.41 -0.48 M-10.49 28.15 C-8.39 20.71, -6.19 12.79, -0.89 -0.05" stroke="#1e1e1e" stroke-width="1" fill="none"></path></g></g><mask></mask><g stroke-linecap="round"><g transform="translate(1486.960308754146 750.0741418755429) rotate(0 -199.00993240251205 1.042998340418535)"><path d="M-0.95 0.29 C-67.24 0.71, -332.78 2.54, -398.77 2.69 M0.75 -0.6 C-65.07 -0.55, -330.16 0.49, -396.46 0.93" stroke="#1e1e1e" stroke-width="1" fill="none"></path></g><g transform="translate(1486.960308754146 750.0741418755429) rotate(0 -199.00993240251205 1.042998340418535)"><path d="M-28.6 9.46 C-21.92 10.62, -18.43 5.81, -1.5 0.92 M-29 10.69 C-21.31 7.47, -12.38 4.4, -1.83 -0.51" stroke="#1e1e1e" stroke-width="1" fill="none"></path></g><g transform="translate(1486.960308754146 750.0741418755429) rotate(0 -199.00993240251205 1.042998340418535)"><path d="M-28.73 -11.07 C-21.99 -5.5, -18.47 -5.92, -1.5 0.92 M-29.13 -9.83 C-21.27 -6.99, -12.3 -3.99, -1.83 -0.51" stroke="#1e1e1e" stroke-width="1" fill="none"></path></g></g><mask></mask><g stroke-linecap="round"><g transform="translate(1146.9603087541477 670.0741418755429) rotate(0 46.687912620976476 -0.5698728401214339)"><path d="M-0.77 0.69 C15.08 0.34, 78.58 -1.49, 94.14 -1.83 M1.03 0.01 C16.91 -0.24, 78.7 -0.7, 93.79 -0.73" stroke="#2f9e44" stroke-width="1" fill="none"></path></g></g><mask></mask><g stroke-linecap="round"><g transform="translate(1237.9603087541473 669.0741418755429) rotate(0 36.43821880654434 -56.4899892991873)"><path d="M1.14 -0.83 C13.37 -20, 60.56 -95.46, 72.59 -114.33 M0.28 1.35 C12.38 -17.7, 59.35 -93.95, 71.43 -112.97" stroke="#2f9e44" stroke-width="1" fill="none"></path></g></g><mask></mask><g stroke-linecap="round"><g transform="translate(1311.9603087541468 556.0741418755429) rotate(0 74.98694471307101 -1.1917553503064937)"><path d="M-0.41 -0.33 C24.47 -0.53, 125.18 -1.72, 150.38 -2.05 M1.58 -1.55 C26.23 -1.48, 124.82 -0.6, 149.63 -0.54" stroke="#2f9e44" stroke-width="1" fill="none"></path></g></g><mask></mask><g stroke-linecap="round"><g transform="translate(1325.9603087541468 555.0741418755429) rotate(0 -0.42251465134324917 96.79526501111695)"><path d="M0.38 -0.05 C0.24 32.28, -0.84 161.31, -1.22 193.64" stroke="#1e1e1e" stroke-width="1.5" fill="none" stroke-dasharray="8 9"></path></g></g><mask></mask><g stroke-linecap="round"><g transform="translate(1287.9603087541473 593.0741418755429) rotate(0 -2.562648377940036 79.3001484554261)"><path d="M0.78 -0.36 C-0.27 26.15, -4.68 132.45, -5.9 158.96" stroke="#1e1e1e" stroke-width="1.5" fill="none" stroke-dasharray="8 9"></path></g></g><mask></mask><g stroke-linecap="round"><g transform="translate(1310.9603087541468 555.0741418755429) rotate(0 -79.73390812687569 0.8208075802772328)"><path d="M0.1 -0.04 C-26.62 0.3, -133.08 1.39, -159.57 1.69" stroke="#1e1e1e" stroke-width="1.5" fill="none" stroke-dasharray="8 9"></path></g></g><mask></mask><g stroke-linecap="round"><g transform="translate(1286.9603087541473 594.0741418755429) rotate(0 -70.69729243330653 1.1969518583266563)"><path d="M-0.57 -0.31 C-24.05 0.14, -117.25 2.32, -140.83 2.71" stroke="#1e1e1e" stroke-width="1.5" fill="none" stroke-dasharray="8 9"></path></g></g><mask></mask><g transform="translate(1326.9603087541468 770.0741418755429) rotate(0 8.139991760253906 12.5)"><text x="0" y="0" font-family="Virgil, Segoe UI Emoji" font-size="20px" fill="#1e1e1e" text-anchor="start" style="white-space: pre;" direction="ltr" dominant-baseline="text-before-edge">s1</text></g><g transform="translate(1122.9603087541477 550.0741418755429) rotate(0 7.939994812011719 12.5)"><text x="0" y="0" font-family="Virgil, Segoe UI Emoji" font-size="20px" fill="#1e1e1e" text-anchor="start" style="white-space: pre;" direction="ltr" dominant-baseline="text-before-edge">v1</text></g><g stroke-linecap="round"><g transform="translate(1327 554.5) rotate(0 -9.179789308747331 -0.7333989626260973)"><path d="M0.07 -0.07 C-2.78 -0.39, -14.41 -1.25, -17.31 -1.4 M-1.36 -1.15 C-4.38 -1.35, -15.6 -0.32, -18.43 -0.07" stroke="#e03131" stroke-width="4" fill="none"></path></g></g><mask></mask><g stroke-linecap="round"><g transform="translate(1311 555.5) rotate(0 -11.852282912135138 19.411120423600096)"><path d="M1.08 -0.33 C-3.07 6.25, -19.79 32.68, -23.89 39.24 M0.18 -1.55 C-4.2 5.19, -20.74 33.47, -24.78 40.38" stroke="#e03131" stroke-width="4" fill="none"></path></g></g><mask></mask><g stroke-linecap="round"><g transform="translate(1284 594.5) rotate(0 -21.661074491366776 37.96770219281325)"><path d="M-0.59 0.56 C-8.08 13.28, -36.72 63.63, -44.14 76.13 M1.31 -0.2 C-6.34 12.24, -36.76 62.31, -44.63 74.6" stroke="#e03131" stroke-width="1" fill="none"></path></g></g><mask></mask><g stroke-linecap="round"><g transform="translate(1239 668.5) rotate(0 -18.158120730519272 0.07205696292226094)"><path d="M-0.18 0.7 C-6.21 0.69, -29.7 -0.42, -35.81 -0.56 M-1.74 0.03 C-7.85 0.22, -30.16 0.5, -36.13 0.69" stroke="#e03131" stroke-width="1" fill="none"></path></g></g><mask></mask><g stroke-linecap="round"><g transform="translate(1201 657.5) rotate(0 0.48192337582349865 13.954592223223244)"><path d="M0.78 1.15 C1.15 5.31, 1.36 21.46, 1.16 25.78 M-0.27 0.71 C0.13 4.98, 1 23.11, 0.82 27.2" stroke="#e03131" stroke-width="1" fill="none"></path></g></g><mask></mask><g transform="translate(1051.2200317382812 603) rotate(0 26.77996826171875 12.5)"><text x="0" y="0" font-family="Virgil, Segoe UI Emoji" font-size="20px" fill="#e03131" text-anchor="start" style="white-space: pre;" direction="ltr" dominant-baseline="text-before-edge">cut s</text></g><g stroke-linecap="round"><g transform="translate(1175.9727463787685 663.890697659077) rotate(0 -33.26236206881538 -17.07697378095213)"><path d="M-0.38 0.61 C-11.71 -4.76, -56.23 -27.39, -67.52 -33.11 M1.61 -0.12 C-9.85 -5.73, -56.4 -29.41, -68.14 -34.76" stroke="#e03131" stroke-width="1" fill="none"></path></g><g transform="translate(1175.9727463787685 663.890697659077) rotate(0 -33.26236206881538 -17.07697378095213)"><path d="M-29.17 -1.8 C-18.73 -1.49, -9.73 -1.33, 1.53 -1.14 M-29.85 -2.41 C-22.59 -2.76, -17.23 -0.82, -0.6 -0.18" stroke="#e03131" stroke-width="1" fill="none"></path></g><g transform="translate(1175.9727463787685 663.890697659077) rotate(0 -33.26236206881538 -17.07697378095213)"><path d="M-19.98 -20.15 C-12.76 -13.71, -6.85 -7.39, 1.53 -1.14 M-20.66 -20.76 C-15.63 -16.89, -12.39 -10.72, -0.6 -0.18" stroke="#e03131" stroke-width="1" fill="none"></path></g></g><mask></mask><g transform="translate(514.1115864257813 536.4499999999998) rotate(0 209.57299023437497 17.90000000000009)"><text x="0" y="0" font-family="Virgil, Segoe UI Emoji" font-size="28.64px" fill="#e03131" text-anchor="start" style="white-space: pre;" direction="ltr" dominant-baseline="text-before-edge">s_f: fix s, 0.3s*0.8 = 0.25m</text></g><g transform="translate(511.2764291992189 482.75) rotate(0 230.7235708007812 17.90000000000009)"><text x="0" y="0" font-family="Virgil, Segoe UI Emoji" font-size="28.64px" fill="#e03131" text-anchor="start" style="white-space: pre;" direction="ltr" dominant-baseline="text-before-edge">s_c: cut s, remain distance jump</text></g><g stroke-linecap="round"><g transform="translate(1152.3965816169234 14.104687689789898) rotate(0 0.5464946206515151 160.88806372149838)"><path d="M-0.05 -0.72 C0.55 52.93, 2.31 267.52, 2.63 320.97 M-1.53 1.51 C-0.96 55.45, 1.59 269.28, 2.01 322.5" stroke="#1e1e1e" stroke-width="1" fill="none"></path></g><g transform="translate(1152.3965816169234 14.104687689789898) rotate(0 0.5464946206515151 160.88806372149838)"><path d="M9.25 28.42 C8.32 20.89, 4.38 13.25, -0.08 -1.71 M10.05 27.57 C5.58 15.83, 1.37 4.78, 0.05 -0.62" stroke="#1e1e1e" stroke-width="1" fill="none"></path></g><g transform="translate(1152.3965816169234 14.104687689789898) rotate(0 0.5464946206515151 160.88806372149838)"><path d="M-11.27 28.6 C-7.67 21.04, -7.07 13.36, -0.08 -1.71 M-10.47 27.75 C-6.86 15.98, -2.99 4.86, 0.05 -0.62" stroke="#1e1e1e" stroke-width="1" fill="none"></path></g></g><mask></mask><g stroke-linecap="round"><g transform="translate(1492.3965816169234 315.1046876897899) rotate(0 -199.28727313025865 0.4693616059980741)"><path d="M0.63 -0.03 C-65.73 0.26, -331.56 0.67, -398.17 1.01 M-0.5 -1.08 C-67.03 -0.61, -333.17 1.29, -399.2 2.02" stroke="#1e1e1e" stroke-width="1" fill="none"></path></g><g transform="translate(1492.3965816169234 315.1046876897899) rotate(0 -199.28727313025865 0.4693616059980741)"><path d="M-27.58 10.03 C-20.8 5.39, -10.83 3.06, 2.5 1.67 M-28.04 9.84 C-20.25 6.95, -11.76 4.62, 0.55 -0.2" stroke="#1e1e1e" stroke-width="1" fill="none"></path></g><g transform="translate(1492.3965816169234 315.1046876897899) rotate(0 -199.28727313025865 0.4693616059980741)"><path d="M-27.63 -10.49 C-20.96 -9.06, -10.98 -5.32, 2.5 1.67 M-28.09 -10.68 C-20.37 -7.88, -11.87 -4.51, 0.55 -0.2" stroke="#1e1e1e" stroke-width="1" fill="none"></path></g></g><mask></mask><g stroke-linecap="round"><g transform="translate(1152.3965816169234 235.1046876897899) rotate(0 46.217362919691936 -0.01672869622552753)"><path d="M-0.17 -0.99 C15.06 -1.16, 76.54 -1.2, 91.97 -1.02 M-1.71 1.1 C13.82 1.14, 78.64 0.97, 94.15 0.51" stroke="#2f9e44" stroke-width="1" fill="none"></path></g></g><mask></mask><g stroke-linecap="round"><g transform="translate(1243.3965816169234 234.1046876897899) rotate(0 36.89150274501185 -57.21099553436966)"><path d="M-1.03 -0.02 C11.07 -18.66, 59.9 -93.83, 72.41 -112.87 M0.64 -1.07 C13.15 -19.94, 62.62 -95.73, 74.81 -114.41" stroke="#2f9e44" stroke-width="1" fill="none"></path></g></g><mask></mask><g stroke-linecap="round"><g transform="translate(1317.3965816169234 121.1046876897899) rotate(0 75.21121643967933 -0.5712402421982006)"><path d="M-0.59 1.13 C24.75 0.75, 126 -1.79, 151.01 -2.27 M1.3 0.67 C26.66 0.48, 126.07 -0.7, 150.6 -0.87" stroke="#2f9e44" stroke-width="1" fill="none"></path></g></g><mask></mask><g stroke-linecap="round"><g transform="translate(1293.3965816169234 158.1046876897899) rotate(0 -1.5443550448865153 79.33762828521435)"><path d="M-0.49 0.23 C-1.09 26.68, -2.23 132.07, -2.6 158.45" stroke="#1e1e1e" stroke-width="1.5" fill="none" stroke-dasharray="8 9"></path></g></g><mask></mask><g stroke-linecap="round"><g transform="translate(1292.3965816169234 159.1046876897899) rotate(0 -68.7867353063076 -0.19997077770540272)"><path d="M-0.69 -0.53 C-23.4 -0.41, -114.15 0.07, -136.88 0.13" stroke="#1e1e1e" stroke-width="1.5" fill="none" stroke-dasharray="8 9"></path></g></g><mask></mask><g transform="translate(1257.0725891267602 380.92203598526703) rotate(0 40.799949645996094 12.5)"><text x="0" y="0" font-family="Virgil, Segoe UI Emoji" font-size="20px" fill="#1e1e1e" text-anchor="start" style="white-space: pre;" direction="ltr" dominant-baseline="text-before-edge">s1 - s_f</text></g><g stroke-linecap="round"><g transform="translate(1216.6553320759626 235.86467773040295) rotate(0 -1.759084508940532 40.731668929383204)"><path d="M-1.15 -0.57 C-1.66 12.93, -2.32 68.56, -2.37 82.04" stroke="#1e1e1e" stroke-width="1.5" fill="none" stroke-dasharray="8 9"></path></g></g><mask></mask><g transform="translate(1168.412631241018 351.92203598526703) rotate(0 43.45994567871094 12.5)"><text x="0" y="0" font-family="Virgil, Segoe UI Emoji" font-size="20px" fill="#1e1e1e" text-anchor="start" style="white-space: pre;" direction="ltr" dominant-baseline="text-before-edge">s1' - s_f</text></g><g stroke-linecap="round"><g transform="translate(1316.4052139456478 118.68935319967568) rotate(0 -11.851188475247568 20.531111329253918)"><path d="M-1.11 1.13 C-4.92 7.66, -19.58 32.84, -23.51 39.25 M0.5 0.67 C-3.35 7.34, -20.42 33.72, -24.21 40.39" stroke="#e03131" stroke-width="4" fill="none"></path></g></g><mask></mask><g stroke-linecap="round"><g transform="translate(1320.936474219784 121.5799103643003) rotate(0 6.904716902226255 0.2763023038469328)"><path d="M0.73 0.25 C2.91 0.63, 12.03 1.31, 14.16 1.2 M-0.35 -0.66 C1.68 -0.49, 11.59 -0.51, 13.82 -0.3" stroke="#e03131" stroke-width="4" fill="none"></path></g></g><mask></mask><g stroke-linecap="round"><g transform="translate(655.1840007299093 26.182651704522414) rotate(0 1.2294230252267653 160.14878260083492)"><path d="M0.46 -1.03 C0.61 52.63, 0.61 267.47, 1.02 321.32 M-0.76 1.05 C-0.25 54.38, 2.65 266.16, 3.22 319.37" stroke="#1e1e1e" stroke-width="1" fill="none"></path></g><g transform="translate(655.1840007299093 26.182651704522414) rotate(0 1.2294230252267653 160.14878260083492)"><path d="M9.04 25.52 C8.26 20.09, 6.38 9.11, -1.07 -1.01 M9.82 27.49 C7.21 19.62, 5.4 13.58, -0.4 -1.8" stroke="#1e1e1e" stroke-width="1" fill="none"></path></g><g transform="translate(655.1840007299093 26.182651704522414) rotate(0 1.2294230252267653 160.14878260083492)"><path d="M-11.48 25.55 C-5.94 20.03, -1.5 9.04, -1.07 -1.01 M-10.7 27.51 C-8.55 19.65, -5.59 13.61, -0.4 -1.8" stroke="#1e1e1e" stroke-width="1" fill="none"></path></g></g><mask></mask><g stroke-linecap="round"><g transform="translate(995.1840007299093 327.1826517045224) rotate(0 -198.3965816169233 1.2723952323196954)"><path d="M-0.98 0.32 C-67.23 1.01, -330.81 2.97, -397.05 3.1 M0.71 -0.55 C-65.66 -0.08, -330.81 1.14, -397.5 1.55" stroke="#1e1e1e" stroke-width="1" fill="none"></path></g><g transform="translate(995.1840007299093 327.1826517045224) rotate(0 -198.3965816169233 1.2723952323196954)"><path d="M-28.55 12.38 C-17.67 6.76, -11.51 3.96, -2.33 1.86 M-30.03 9.82 C-21.08 7.15, -13.32 3.77, -1.93 -0.6" stroke="#1e1e1e" stroke-width="1" fill="none"></path></g><g transform="translate(995.1840007299093 327.1826517045224) rotate(0 -198.3965816169233 1.2723952323196954)"><path d="M-28.71 -8.14 C-17.95 -6.82, -11.74 -2.68, -2.33 1.86 M-30.18 -10.7 C-21.39 -7.34, -13.58 -4.68, -1.93 -0.6" stroke="#1e1e1e" stroke-width="1" fill="none"></path></g></g><mask></mask><g stroke-linecap="round"><g transform="translate(655.1840007299093 247.1826517045224) rotate(0 46.27471267774706 -0.4091921430081129)"><path d="M0.95 1.1 C16.54 0.72, 77.22 -1.43, 92.56 -1.91 M-0.01 0.63 C15.47 0.35, 76.01 -0.6, 91.38 -0.86" stroke="#2f9e44" stroke-width="1" fill="none"></path></g></g><mask></mask><g stroke-linecap="round"><g transform="translate(746.1840007299093 246.1826517045224) rotate(0 36.286064855381824 -56.79615535229436)"><path d="M-0.44 -0.91 C11.57 -20.23, 60.62 -95.95, 73.01 -114.81 M1.53 1.22 C13.3 -17.45, 60.05 -94.7, 72.07 -113.7" stroke="#2f9e44" stroke-width="1" fill="none"></path></g></g><mask></mask><g stroke-linecap="round"><g transform="translate(820.1840007299093 133.1826517045224) rotate(0 74.73944276198745 -0.3462654877503155)"><path d="M0.01 -0.81 C25.24 -1.01, 126.11 -1.94, 150.92 -2.07 M-1.44 1.38 C23.74 1.46, 125.02 0.28, 150.46 -0.57" stroke="#2f9e44" stroke-width="1" fill="none"></path></g></g><mask></mask><g stroke-linecap="round"><g transform="translate(834.1840007299093 132.1826517045224) rotate(0 -1.0974463779479038 97.1658900756388)"><path d="M0.92 -0.07 C0.4 32.46, -2.44 162.26, -3.12 194.4" stroke="#1e1e1e" stroke-width="1.5" fill="none" stroke-dasharray="8 9"></path></g></g><mask></mask><g stroke-linecap="round"><g transform="translate(796.1840007299093 170.1826517045224) rotate(0 -2.620158835127995 78.61286953873923)"><path d="M-1.12 0.4 C-1.96 26.55, -3.74 130.65, -4.12 156.82" stroke="#1e1e1e" stroke-width="1.5" fill="none" stroke-dasharray="8 9"></path></g></g><mask></mask><g stroke-linecap="round"><g transform="translate(819.1840007299093 132.1826517045224) rotate(0 -80.27449551410973 0.1270384091883443)"><path d="M-1.12 -1.18 C-27.51 -1.01, -132.94 1.06, -159.43 1.43" stroke="#1e1e1e" stroke-width="1.5" fill="none" stroke-dasharray="8 9"></path></g></g><mask></mask><g stroke-linecap="round"><g transform="translate(795.1840007299093 171.1826517045224) rotate(0 -69.22895006723695 -0.746819265857539)"><path d="M-0.43 -0.57 C-23.24 -0.53, -115.08 -0.84, -138.03 -0.93" stroke="#1e1e1e" stroke-width="1.5" fill="none" stroke-dasharray="8 9"></path></g></g><mask></mask><g transform="translate(828.1840007299093 336.1826517045224) rotate(0 8.139991760253906 12.5)"><text x="0" y="0" font-family="Virgil, Segoe UI Emoji" font-size="20px" fill="#1e1e1e" text-anchor="start" style="white-space: pre;" direction="ltr" dominant-baseline="text-before-edge">s1</text></g><g transform="translate(631.1840007299093 127.18265170452241) rotate(0 7.939994812011719 12.5)"><text x="0" y="0" font-family="Virgil, Segoe UI Emoji" font-size="20px" fill="#1e1e1e" text-anchor="start" style="white-space: pre;" direction="ltr" dominant-baseline="text-before-edge">v1</text></g><g transform="translate(750.0837002155095 335.1085098289782) rotate(0 10.79998779296875 12.5)"><text x="0" y="0" font-family="Virgil, Segoe UI Emoji" font-size="20px" fill="#1e1e1e" text-anchor="start" style="white-space: pre;" direction="ltr" dominant-baseline="text-before-edge">s1'</text></g><g transform="translate(629.2836971637514 155.10850982897819) rotate(0 10.599990844726562 12.5)"><text x="0" y="0" font-family="Virgil, Segoe UI Emoji" font-size="20px" fill="#1e1e1e" text-anchor="start" style="white-space: pre;" direction="ltr" dominant-baseline="text-before-edge">v1'</text></g><g stroke-linecap="round"><g transform="translate(758.1765775185079 220.47339589186095) rotate(0 -0.442751188948705 55.557358254864766)"><path d="M1.08 0.94 C0.94 19.44, -1.42 92.16, -1.96 110.18" stroke="#1e1e1e" stroke-width="1.5" fill="none" stroke-dasharray="8 9"></path></g></g><mask></mask><g stroke-linecap="round"><g transform="translate(719.4427511889485 247.94264174513546) rotate(0 -0.2665892105549119 41.672217301651926)"><path d="M-0.08 -0.5 C-0.19 13.47, -0.44 70.02, -0.45 83.84" stroke="#1e1e1e" stroke-width="1.5" fill="none" stroke-dasharray="8 9"></path></g></g><mask></mask><g stroke-linecap="round"><g transform="translate(817.8522829121353 132.08887957639945) rotate(0 -12.405213945647688 19.81064680032432)"><path d="M0.91 -0.71 C-3.17 5.89, -20.48 33.73, -24.5 40.34 M-0.08 1.52 C-4.35 7.69, -21.8 32.04, -25.72 38.39" stroke="#e03131" stroke-width="4" fill="none"></path></g></g><mask></mask><g stroke-linecap="round"><g transform="translate(821 132.5) rotate(0 7.063525780215855 0.9200896356999237)"><path d="M0.74 0.22 C2.6 0.74, 10.26 2.25, 12.18 2.55 M-0.33 -0.71 C1.82 -0.5, 11.95 0.04, 14.46 0.71" stroke="#e03131" stroke-width="4" fill="none"></path></g></g><mask></mask><g stroke-linecap="round"><g transform="translate(794 303.5) rotate(0 20.251066650822736 0.33830186538398266)"><path d="M0.89 -0.18 C7.58 0.02, 33.17 0.84, 39.61 0.86" stroke="#e03131" stroke-width="1.5" fill="none" stroke-dasharray="8 9"></path></g></g><mask></mask><g transform="translate(744.2000503540039 406.99999999999955) rotate(0 18.54998016357422 12.5)"><text x="0" y="0" font-family="Virgil, Segoe UI Emoji" font-size="20px" fill="#1e1e1e" text-anchor="start" style="white-space: pre;" direction="ltr" dominant-baseline="text-before-edge">s_f</text></g><g stroke-linecap="round"><g transform="translate(810 342.5) rotate(0 -9.935250814631672 27.907926918938756)"><path d="M1.2 -0.29 C-2.31 9.23, -17.53 46.57, -21.07 56.11" stroke="#e03131" stroke-width="1.5" fill="none" stroke-dasharray="8 9"></path></g><g transform="translate(810 342.5) rotate(0 -9.935250814631672 27.907926918938756)"><path d="M-0.13 29.58 C-0.61 22.26, 1 12.77, 0.85 -0.33" stroke="#e03131" stroke-width="1.5" fill="none"></path></g><g transform="translate(810 342.5) rotate(0 -9.935250814631672 27.907926918938756)"><path d="M-19.21 22.02 C-14.03 16.78, -6.68 9.57, 0.85 -0.33" stroke="#e03131" stroke-width="1.5" fill="none"></path></g></g><mask></mask><g stroke-linecap="round"><g transform="translate(717.7489333491774 310.161698134616) rotate(0 19.239166788384296 -0.2957230231011181)"><path d="M-1 -0.15 C5.45 -0.42, 32.71 -0.49, 39.48 -0.41" stroke="#e03131" stroke-width="1.5" fill="none" stroke-dasharray="8 9"></path></g></g><mask></mask><g stroke-linecap="round"><g transform="translate(733.9352508146317 316.5920730810617) rotate(0 5.984717075154094 41.27793476767829)"><path d="M-0.88 -0.97 C1.17 12.94, 10.45 69.4, 12.85 83.53" stroke="#e03131" stroke-width="1.5" fill="none" stroke-dasharray="8 9"></path></g><g transform="translate(733.9352508146317 316.5920730810617) rotate(0 5.984717075154094 41.27793476767829)"><path d="M12.11 23.31 C7.84 15.2, 3.16 8.25, -2.54 0.39" stroke="#e03131" stroke-width="1.5" fill="none"></path></g><g transform="translate(733.9352508146317 316.5920730810617) rotate(0 5.984717075154094 41.27793476767829)"><path d="M-8.15 26.57 C-5.35 17.47, -2.97 9.38, -2.54 0.39" stroke="#e03131" stroke-width="1.5" fill="none"></path></g></g><mask></mask><g transform="translate(259 378.5) rotate(0 -11.5 49)" stroke="none"><path fill="#1971c2" d="M 1.49,0.95 Q 1.49,0.95 -0.56,4.08 -2.63,7.20 -4.34,10.74 -6.05,14.27 -7.98,17.59 -9.92,20.90 -11.29,23.67 -12.67,26.44 -13.54,28.47 -14.41,30.49 -15.06,32.46 -15.71,34.42 -16.22,36.17 -16.74,37.91 -16.87,39.40 -17.01,40.88 -17.09,42.63 -17.16,44.39 -17.55,46.67 -17.94,48.96 -18.41,51.08 -18.88,53.21 -19.00,54.89 -19.12,56.57 -19.18,58.42 -19.24,60.26 -19.58,62.31 -19.92,64.37 -20.06,66.27 -20.19,68.18 -20.58,70.52 -20.98,72.85 -21.08,74.63 -21.19,76.42 -21.19,78.03 -21.19,79.63 -21.16,81.18 -21.12,82.72 -21.13,84.52 -21.14,86.32 -20.81,87.46 -20.48,88.60 -20.27,89.84 -20.07,91.08 -19.97,92.50 -19.87,93.92 -19.37,95.48 -18.88,97.03 -18.78,97.40 -18.68,97.76 -18.71,98.14 -18.73,98.51 -18.87,98.86 -19.01,99.21 -19.26,99.49 -19.50,99.78 -19.83,99.97 -20.15,100.16 -20.52,100.24 -20.89,100.32 -21.26,100.27 -21.63,100.23 -21.97,100.07 -22.31,99.91 -22.58,99.65 -22.85,99.39 -23.03,99.05 -23.20,98.72 -23.26,98.35 -23.32,97.98 -23.25,97.61 -23.19,97.24 -23.01,96.91 -22.83,96.58 -22.56,96.32 -22.28,96.06 -21.94,95.91 -21.60,95.75 -21.23,95.71 -20.85,95.68 -20.49,95.76 -20.12,95.84 -19.80,96.04 -19.48,96.24 -19.24,96.52 -19.00,96.81 -18.86,97.16 -18.72,97.51 -18.71,97.89 -18.69,98.26 -18.79,98.62 -18.89,98.99 -19.11,99.30 -19.32,99.60 -19.62,99.83 -19.92,100.06 -20.28,100.17 -20.64,100.29 -21.01,100.29 -21.39,100.28 -21.74,100.16 -22.10,100.04 -22.40,99.81 -22.69,99.58 -22.90,99.27 -23.11,98.95 -23.11,98.96 -23.11,98.96 -23.69,96.52 -24.27,94.08 -24.31,91.75 -24.34,89.41 -24.58,87.86 -24.82,86.31 -24.80,84.49 -24.79,82.66 -24.70,81.08 -24.62,79.50 -24.49,77.83 -24.37,76.16 -24.18,74.28 -23.99,72.40 -23.69,70.18 -23.40,67.96 -23.26,65.90 -23.12,63.84 -22.82,61.98 -22.52,60.13 -22.42,58.18 -22.33,56.24 -22.09,54.42 -21.84,52.60 -21.46,50.54 -21.07,48.49 -20.80,46.34 -20.53,44.20 -20.40,42.29 -20.26,40.39 -19.92,38.69 -19.58,36.98 -18.96,35.28 -18.34,33.57 -17.67,31.48 -17.00,29.40 -16.13,27.29 -15.26,25.18 -13.89,22.30 -12.51,19.41 -10.69,16.18 -8.87,12.94 -7.14,9.19 -5.41,5.44 -3.45,2.24 -1.49,-0.95 -1.36,-1.11 -1.22,-1.28 -1.05,-1.41 -0.88,-1.53 -0.68,-1.62 -0.48,-1.70 -0.27,-1.73 -0.06,-1.77 0.14,-1.75 0.36,-1.73 0.56,-1.66 0.76,-1.60 0.94,-1.48 1.12,-1.37 1.27,-1.21 1.42,-1.06 1.52,-0.87 1.63,-0.69 1.69,-0.48 1.75,-0.27 1.76,-0.06 1.76,0.14 1.72,0.35 1.68,0.56 1.58,0.76 1.49,0.95 1.49,0.95 L 1.49,0.95 Z"></path></g><g transform="translate(213 449.5) rotate(0 21 10)" stroke="none"><path fill="#1971c2" d="M 1.47,-1.47 Q 1.47,-1.47 3.41,0.60 5.35,2.69 7.34,5.08 9.33,7.47 11.31,9.93 13.28,12.40 14.94,14.29 16.60,16.17 17.91,17.90 19.23,19.62 20.54,20.23 21.85,20.83 22.88,21.24 23.91,21.65 25.58,19.32 27.26,16.99 28.75,15.03 30.25,13.06 31.82,11.04 33.38,9.01 34.60,7.09 35.82,5.16 36.91,2.95 38.00,0.73 38.34,-0.49 38.68,-1.72 39.70,-3.53 40.72,-5.35 40.97,-5.51 41.22,-5.68 41.51,-5.76 41.80,-5.84 42.10,-5.83 42.40,-5.81 42.68,-5.70 42.96,-5.59 43.18,-5.39 43.41,-5.20 43.57,-4.94 43.72,-4.68 43.79,-4.39 43.85,-4.09 43.82,-3.79 43.78,-3.50 43.66,-3.22 43.53,-2.95 43.32,-2.73 43.12,-2.51 42.85,-2.37 42.59,-2.23 42.29,-2.19 41.99,-2.14 41.70,-2.19 41.40,-2.24 41.13,-2.38 40.87,-2.52 40.66,-2.74 40.46,-2.96 40.33,-3.23 40.20,-3.50 40.17,-3.80 40.14,-4.10 40.21,-4.39 40.27,-4.69 40.43,-4.94 40.58,-5.20 40.81,-5.39 41.04,-5.59 41.32,-5.70 41.60,-5.81 41.90,-5.83 42.20,-5.84 42.49,-5.76 42.78,-5.68 43.03,-5.51 43.28,-5.34 43.46,-5.10 43.64,-4.86 43.73,-4.58 43.83,-4.29 43.83,-3.99 43.83,-3.69 43.73,-3.41 43.63,-3.12 43.45,-2.88 43.27,-2.64 43.27,-2.64 43.27,-2.64 42.60,-1.59 41.94,-0.53 41.35,0.75 40.77,2.05 39.68,4.43 38.59,6.82 37.38,8.93 36.18,11.05 34.75,13.14 33.32,15.22 31.83,17.51 30.34,19.80 29.04,21.41 27.75,23.01 26.43,24.33 25.12,25.65 23.04,25.35 20.97,25.05 19.81,24.16 18.66,23.27 17.79,22.36 16.91,21.45 15.62,19.84 14.33,18.24 12.56,16.35 10.79,14.46 8.76,12.10 6.73,9.74 4.71,7.55 2.69,5.35 0.60,3.41 -1.47,1.47 -1.63,1.27 -1.78,1.08 -1.89,0.85 -1.99,0.62 -2.04,0.37 -2.08,0.12 -2.07,-0.12 -2.05,-0.37 -1.98,-0.61 -1.90,-0.85 -1.77,-1.07 -1.64,-1.28 -1.46,-1.46 -1.28,-1.64 -1.07,-1.77 -0.85,-1.90 -0.61,-1.98 -0.37,-2.05 -0.12,-2.07 0.12,-2.08 0.37,-2.04 0.62,-1.99 0.85,-1.89 1.08,-1.78 1.27,-1.63 1.47,-1.47 1.47,-1.47 L 1.47,-1.47 Z"></path></g><g transform="translate(964 175.5) rotate(0 52 8.5)" stroke="none"><path fill="#1971c2" d="M -0.13,-1.78 Q -0.13,-1.78 3.60,-2.01 7.34,-2.23 12.88,-3.16 18.43,-4.08 26.08,-4.48 33.74,-4.87 39.84,-5.03 45.95,-5.18 49.70,-5.24 53.44,-5.29 56.26,-5.02 59.08,-4.75 60.92,-4.40 62.76,-4.05 64.42,-3.65 66.08,-3.24 67.78,-2.46 69.48,-1.67 71.35,-0.39 73.21,0.89 75.63,2.26 78.05,3.63 80.29,5.13 82.53,6.63 84.33,7.84 86.12,9.05 87.98,10.11 89.85,11.18 91.79,12.22 93.73,13.25 95.18,13.89 96.63,14.54 97.96,15.42 99.30,16.31 100.35,16.85 101.41,17.40 103.08,18.25 104.75,19.10 105.04,19.27 105.32,19.44 105.53,19.70 105.74,19.95 105.87,20.25 105.99,20.56 106.00,20.89 106.02,21.22 105.93,21.54 105.84,21.85 105.66,22.13 105.47,22.40 105.21,22.60 104.95,22.80 104.63,22.90 104.32,23.01 103.99,23.01 103.66,23.01 103.35,22.90 103.04,22.79 102.77,22.59 102.51,22.39 102.33,22.12 102.14,21.85 102.06,21.53 101.97,21.21 101.99,20.88 102.01,20.55 102.13,20.25 102.25,19.94 102.46,19.69 102.68,19.44 102.96,19.27 103.24,19.10 103.57,19.03 103.89,18.96 104.22,19.00 104.54,19.03 104.84,19.17 105.14,19.31 105.38,19.54 105.62,19.77 105.77,20.06 105.93,20.35 105.98,20.67 106.03,21.00 105.98,21.33 105.93,21.65 105.77,21.94 105.62,22.23 105.38,22.46 105.14,22.68 104.84,22.82 104.54,22.96 104.21,23.00 103.88,23.03 103.56,22.96 103.24,22.89 103.24,22.89 103.24,22.89 101.32,21.76 99.41,20.63 98.31,19.85 97.22,19.07 96.21,18.19 95.19,17.30 93.82,16.49 92.45,15.68 90.46,14.65 88.48,13.61 86.51,12.52 84.55,11.43 82.73,10.26 80.92,9.09 78.75,7.70 76.57,6.31 74.01,4.95 71.44,3.58 69.69,2.49 67.94,1.40 66.56,0.65 65.17,-0.09 63.63,-0.60 62.09,-1.11 60.45,-1.55 58.82,-1.99 56.16,-2.23 53.50,-2.47 49.77,-2.38 46.04,-2.28 39.97,-2.08 33.90,-1.88 26.43,-1.44 18.97,-0.99 13.28,0.04 7.60,1.08 3.87,1.43 0.13,1.78 -0.07,1.77 -0.29,1.76 -0.50,1.70 -0.70,1.64 -0.89,1.53 -1.08,1.42 -1.23,1.27 -1.39,1.12 -1.50,0.94 -1.62,0.76 -1.69,0.55 -1.75,0.35 -1.77,0.13 -1.79,-0.07 -1.75,-0.29 -1.71,-0.50 -1.63,-0.70 -1.54,-0.90 -1.41,-1.07 -1.28,-1.24 -1.12,-1.38 -0.95,-1.51 -0.75,-1.61 -0.56,-1.70 -0.34,-1.74 -0.13,-1.78 -0.13,-1.78 L -0.13,-1.78 Z"></path></g><g transform="translate(1065 174.5) rotate(0 -11.5 20.5)" stroke="none"><path fill="#1971c2" d="M 1.87,0 Q 1.87,0 1.79,2.58 1.72,5.17 1.94,7.32 2.17,9.46 2.53,11.53 2.89,13.59 3.07,15.72 3.24,17.84 3.64,19.47 4.03,21.11 4.47,22.97 4.92,24.84 5.17,26.59 5.43,28.34 5.78,30.13 6.14,31.92 6.35,33.65 6.56,35.38 6.96,36.48 7.36,37.59 7.57,38.69 7.78,39.79 7.23,40.90 6.69,42.01 5.17,42.55 3.65,43.09 1.61,42.52 -0.42,41.95 -2.86,40.70 -5.31,39.46 -8.21,38.37 -11.12,37.28 -13.76,36.50 -16.41,35.72 -18.96,35.08 -21.52,34.44 -23.51,33.87 -25.50,33.30 -27.43,33.02 -29.35,32.74 -29.62,32.64 -29.89,32.53 -30.11,32.35 -30.34,32.17 -30.49,31.92 -30.64,31.68 -30.71,31.40 -30.77,31.12 -30.75,30.83 -30.72,30.54 -30.60,30.28 -30.48,30.02 -30.29,29.80 -30.09,29.59 -29.84,29.45 -29.59,29.32 -29.30,29.26 -29.02,29.21 -28.74,29.26 -28.45,29.30 -28.19,29.43 -27.94,29.56 -27.74,29.77 -27.54,29.97 -27.41,30.23 -27.29,30.49 -27.25,30.78 -27.22,31.07 -27.27,31.35 -27.33,31.63 -27.48,31.88 -27.62,32.13 -27.84,32.32 -28.05,32.51 -28.32,32.62 -28.59,32.73 -28.87,32.75 -29.16,32.77 -29.44,32.70 -29.72,32.62 -29.96,32.46 -30.20,32.31 -30.38,32.08 -30.56,31.85 -30.65,31.58 -30.75,31.31 -30.75,31.02 -30.76,30.73 -30.67,30.46 -30.58,30.18 -30.41,29.95 -30.24,29.72 -30.00,29.55 -29.77,29.39 -29.49,29.31 -29.21,29.23 -28.93,29.24 -28.64,29.25 -28.64,29.25 -28.64,29.25 -26.66,29.77 -24.67,30.29 -22.74,30.80 -20.80,31.32 -18.16,31.87 -15.53,32.42 -12.73,33.09 -9.92,33.77 -6.77,34.75 -3.62,35.72 -1.30,36.64 1.02,37.56 2.30,38.09 3.59,38.63 3.28,37.18 2.97,35.73 2.86,34.16 2.76,32.58 2.39,30.66 2.01,28.73 1.89,27.15 1.77,25.57 1.33,23.67 0.89,21.76 0.56,19.93 0.24,18.10 0.06,16.14 -0.10,14.17 -0.56,12.02 -1.02,9.87 -1.37,7.52 -1.72,5.17 -1.79,2.58 -1.87,0 -1.84,-0.22 -1.81,-0.44 -1.73,-0.65 -1.65,-0.86 -1.52,-1.05 -1.40,-1.24 -1.23,-1.39 -1.06,-1.54 -0.86,-1.64 -0.66,-1.75 -0.44,-1.80 -0.22,-1.85 0.00,-1.85 0.22,-1.85 0.44,-1.80 0.66,-1.75 0.86,-1.64 1.06,-1.54 1.23,-1.39 1.40,-1.24 1.52,-1.05 1.65,-0.86 1.73,-0.65 1.81,-0.44 1.84,-0.22 1.87,0.00 1.87,0.00 L 1.87,0 Z"></path></g><g transform="translate(1216 397.5) rotate(0 -1 37)" stroke="none"><path fill="#1971c2" d="M 1.73,0.24 Q 1.73,0.24 1.41,2.25 1.09,4.26 0.95,6.19 0.81,8.13 0.75,10.10 0.68,12.08 0.65,14.06 0.62,16.05 0.85,18.24 1.09,20.43 1.18,22.60 1.28,24.78 1.33,26.85 1.38,28.93 1.46,30.67 1.54,32.41 1.57,34.30 1.60,36.20 1.60,38.15 1.61,40.11 1.60,42.09 1.60,44.07 1.59,46.06 1.59,48.05 1.64,49.76 1.69,51.47 1.77,52.77 1.86,54.07 1.92,55.49 1.98,56.90 2.13,58.46 2.28,60.01 2.39,61.81 2.50,63.61 2.22,65.98 1.94,68.36 1.82,69.71 1.70,71.05 1.08,72.98 0.46,74.91 0.25,75.28 0.04,75.65 -0.27,75.93 -0.59,76.22 -0.98,76.38 -1.37,76.55 -1.79,76.58 -2.22,76.61 -2.63,76.51 -3.04,76.41 -3.40,76.18 -3.76,75.95 -4.02,75.61 -4.29,75.28 -4.43,74.88 -4.58,74.48 -4.59,74.06 -4.60,73.63 -4.47,73.22 -4.35,72.82 -4.10,72.47 -3.85,72.13 -3.50,71.88 -3.16,71.64 -2.75,71.51 -2.34,71.39 -1.92,71.40 -1.49,71.41 -1.09,71.56 -0.69,71.71 -0.36,71.98 -0.03,72.25 0.19,72.61 0.41,72.96 0.52,73.38 0.62,73.79 0.58,74.21 0.54,74.64 0.37,75.03 0.21,75.42 -0.07,75.73 -0.35,76.05 -0.73,76.26 -1.10,76.47 -1.52,76.54 -1.93,76.62 -2.35,76.56 -2.78,76.51 -3.16,76.32 -3.54,76.13 -3.84,75.82 -4.14,75.52 -4.32,75.14 -4.51,74.76 -4.57,74.34 -4.62,73.91 -4.54,73.50 -4.46,73.08 -4.46,73.08 -4.46,73.08 -3.90,71.83 -3.34,70.58 -3.21,68.97 -3.09,67.36 -2.79,65.48 -2.50,63.61 -2.39,61.81 -2.28,60.01 -2.13,58.46 -1.98,56.90 -1.92,55.49 -1.86,54.07 -1.77,52.77 -1.69,51.47 -1.64,49.76 -1.59,48.05 -1.59,46.06 -1.60,44.07 -1.61,42.09 -1.62,40.11 -1.62,38.16 -1.62,36.21 -1.61,34.33 -1.61,32.45 -1.56,30.72 -1.52,29.00 -1.58,26.97 -1.63,24.94 -1.77,22.87 -1.91,20.80 -2.23,18.41 -2.55,16.02 -2.54,14.01 -2.53,11.99 -2.49,9.96 -2.45,7.93 -2.35,5.86 -2.24,3.78 -1.99,1.76 -1.73,-0.24 -1.68,-0.45 -1.62,-0.65 -1.52,-0.84 -1.42,-1.02 -1.28,-1.18 -1.13,-1.33 -0.96,-1.45 -0.78,-1.57 -0.58,-1.64 -0.38,-1.71 -0.17,-1.73 0.03,-1.75 0.24,-1.72 0.45,-1.69 0.65,-1.61 0.84,-1.53 1.02,-1.41 1.19,-1.29 1.32,-1.12 1.46,-0.96 1.56,-0.77 1.65,-0.58 1.70,-0.38 1.74,-0.17 1.74,0.03 1.73,0.24 1.73,0.24 L 1.73,0.24 Z"></path></g><g transform="translate(1198 445.5) rotate(0 17 13.5)" stroke="none"><path fill="#1971c2" d="M 1.62,-1.22 Q 1.62,-1.22 3.27,1.13 4.92,3.49 6.42,5.33 7.92,7.16 9.20,9.22 10.48,11.27 11.58,13.30 12.68,15.34 13.93,16.96 15.17,18.58 16.14,19.88 17.10,21.18 18.04,22.18 18.99,23.19 19.75,23.98 20.51,24.77 22.06,23.31 23.60,21.85 24.97,20.44 26.34,19.03 27.14,17.45 27.94,15.87 28.62,14.07 29.29,12.27 29.57,10.46 29.84,8.65 30.59,6.74 31.33,4.84 31.72,3.14 32.12,1.45 32.25,1.16 32.39,0.87 32.61,0.65 32.83,0.42 33.11,0.28 33.39,0.13 33.71,0.08 34.02,0.04 34.33,0.09 34.64,0.15 34.92,0.30 35.20,0.45 35.42,0.68 35.63,0.92 35.76,1.21 35.89,1.50 35.92,1.81 35.95,2.13 35.88,2.44 35.80,2.74 35.64,3.01 35.47,3.28 35.23,3.48 34.98,3.69 34.69,3.80 34.39,3.91 34.07,3.93 33.76,3.94 33.45,3.85 33.15,3.76 32.89,3.58 32.63,3.40 32.44,3.14 32.25,2.89 32.16,2.59 32.06,2.29 32.06,1.97 32.07,1.65 32.17,1.35 32.28,1.05 32.47,0.81 32.67,0.56 32.93,0.38 33.20,0.21 33.50,0.13 33.81,0.05 34.13,0.07 34.44,0.09 34.73,0.21 35.03,0.33 35.27,0.54 35.50,0.75 35.66,1.02 35.82,1.29 35.89,1.61 35.95,1.92 35.91,2.23 35.87,2.54 35.87,2.54 35.87,2.54 35.24,4.36 34.61,6.18 33.97,7.67 33.32,9.17 33.04,11.30 32.76,13.43 32.12,15.49 31.48,17.55 30.54,19.64 29.60,21.74 28.22,23.56 26.85,25.38 25.55,26.60 24.25,27.82 22.83,28.48 21.40,29.14 19.77,28.70 18.13,28.26 17.18,26.86 16.23,25.47 15.30,24.22 14.37,22.98 13.62,21.68 12.87,20.38 11.45,18.61 10.04,16.83 8.92,14.92 7.80,13.01 6.58,11.20 5.35,9.39 3.66,7.54 1.97,5.70 0.17,3.46 -1.62,1.22 -1.74,1.00 -1.87,0.79 -1.93,0.55 -2.00,0.32 -2.01,0.07 -2.02,-0.16 -1.97,-0.40 -1.92,-0.64 -1.82,-0.86 -1.71,-1.08 -1.56,-1.27 -1.40,-1.46 -1.21,-1.61 -1.01,-1.76 -0.78,-1.85 -0.56,-1.95 -0.32,-1.99 -0.07,-2.03 0.16,-2.01 0.40,-1.99 0.64,-1.91 0.87,-1.83 1.08,-1.70 1.28,-1.57 1.45,-1.39 1.62,-1.22 1.62,-1.22 L 1.62,-1.22 Z"></path></g><g stroke-linecap="round" transform="translate(10 40.5) rotate(0 30 25.5)"><path d="M50.16 5.61 C55.07 9, 59.15 18.1, 59.63 23.68 C60.12 29.27, 56.91 35.07, 53.08 39.14 C49.26 43.21, 42.37 46.65, 36.7 48.11 C31.03 49.58, 25 50.16, 19.04 47.93 C13.09 45.71, 3.69 39.29, 0.95 34.75 C-1.79 30.22, 0.44 25.39, 2.6 20.71 C4.76 16.02, 8.74 10.14, 13.91 6.66 C19.07 3.19, 26.3 -2.25, 33.61 -0.14 C40.92 1.96, 53.52 13.49, 57.77 19.29 C62.02 25.09, 59.48 34.66, 59.11 34.67 M6.83 8.91 C10.71 5.1, 21.98 1.19, 28.2 0.43 C34.42 -0.32, 38.69 1.49, 44.16 4.38 C49.63 7.28, 58.91 12.8, 60.99 17.78 C63.08 22.75, 59.22 28.96, 56.68 34.22 C54.13 39.48, 51.16 46.39, 45.71 49.35 C40.26 52.3, 30.96 53.32, 23.97 51.94 C16.99 50.56, 7.35 45.42, 3.78 41.08 C0.22 36.73, 2.32 31.44, 2.59 25.87 C2.85 20.31, 4.03 10.68, 5.37 7.69 C6.71 4.7, 9.86 7.92, 10.6 7.94" stroke="#1971c2" stroke-width="1" fill="none"></path></g><g transform="translate(37.07679747993092 53.46877707974318) rotate(0 2.7099990844726562 12.5)"><text x="2.7099990844726562" y="0" font-family="Virgil, Segoe UI Emoji" font-size="20px" fill="#1971c2" text-anchor="middle" style="white-space: pre;" direction="ltr" dominant-baseline="text-before-edge">1</text></g><g stroke-linecap="round" transform="translate(10 434) rotate(0 30 25.5)"><path d="M23.49 -0.13 C29.71 -1.45, 38.72 0.41, 44.76 3.01 C50.8 5.6, 57.46 10.47, 59.71 15.43 C61.95 20.39, 60.2 27.69, 58.23 32.79 C56.26 37.89, 52.98 42.71, 47.88 46.01 C42.77 49.31, 34.16 53.42, 27.6 52.58 C21.04 51.73, 13.26 45.24, 8.52 40.95 C3.79 36.65, -0.24 32.18, -0.83 26.82 C-1.42 21.46, -2.11 13.01, 4.99 8.8 C12.1 4.58, 33.41 1.03, 41.82 1.53 C50.24 2.02, 55.64 11.04, 55.5 11.75 M38.75 0.25 C44.67 1.91, 55.41 7.04, 58.67 12.39 C61.93 17.74, 60.13 26.59, 58.31 32.37 C56.5 38.15, 52.7 44.22, 47.76 47.06 C42.83 49.9, 34.59 49.9, 28.69 49.4 C22.78 48.9, 16.7 47.27, 12.34 44.06 C7.98 40.85, 3.66 35.11, 2.51 30.16 C1.36 25.21, 2.41 19.23, 5.43 14.36 C8.45 9.48, 15.23 2.93, 20.63 0.92 C26.02 -1.09, 34.36 2.21, 37.8 2.3 C41.23 2.39, 40.81 1, 41.22 1.44" stroke="#1971c2" stroke-width="1" fill="none"></path></g><g transform="translate(32.66680144721607 446.9687770797432) rotate(0 7.1199951171875 12.5)"><text x="7.1199951171875" y="0" font-family="Virgil, Segoe UI Emoji" font-size="20px" fill="#1971c2" text-anchor="middle" style="white-space: pre;" direction="ltr" dominant-baseline="text-before-edge">2</text></g><g stroke-linecap="round" transform="translate(549 24) rotate(0 30 25.5)"><path d="M6.66 10.14 C10.8 5.94, 20.01 3.18, 26.34 2.3 C32.68 1.43, 39.58 2.45, 44.67 4.89 C49.77 7.33, 54.95 11.8, 56.92 16.94 C58.89 22.07, 58.41 30.35, 56.49 35.68 C54.57 41.02, 50.84 46.51, 45.4 48.97 C39.96 51.43, 30.26 51.27, 23.86 50.44 C17.46 49.61, 10.64 48.42, 6.98 43.98 C3.32 39.54, 0.35 30.49, 1.91 23.79 C3.46 17.09, 11.9 7.67, 16.31 3.8 C20.71 -0.07, 28.06 0.15, 28.32 0.56 M39.9 1.12 C46.19 2.62, 54.45 7.57, 57.64 12.32 C60.83 17.07, 60.44 23.83, 59.03 29.62 C57.61 35.4, 53.95 43.36, 49.14 47.04 C44.33 50.71, 36.64 52.12, 30.19 51.66 C23.74 51.21, 15.11 47.72, 10.45 44.3 C5.8 40.89, 3.19 36.9, 2.25 31.18 C1.32 25.47, 1.5 15.37, 4.85 10.02 C8.2 4.67, 16.56 0.29, 22.33 -0.93 C28.1 -2.14, 36.32 2.45, 39.49 2.72 C42.66 3, 41.19 0.41, 41.35 0.74" stroke="#1971c2" stroke-width="1" fill="none"></path></g><g transform="translate(571.9768066352044 36.96877707974318) rotate(0 6.809989929199219 12.5)"><text x="6.809989929199219" y="0" font-family="Virgil, Segoe UI Emoji" font-size="20px" fill="#1971c2" text-anchor="middle" style="white-space: pre;" direction="ltr" dominant-baseline="text-before-edge">3</text></g><g stroke-linecap="round" transform="translate(1074 10) rotate(0 30 25.5)"><path d="M46.27 4.6 C51.68 6.97, 56.35 11.12, 58.04 16.06 C59.74 20.99, 58.34 28.8, 56.43 34.24 C54.51 39.69, 51.59 45.87, 46.56 48.72 C41.54 51.58, 32.56 52.36, 26.27 51.37 C19.98 50.38, 12.85 46.92, 8.8 42.76 C4.76 38.6, 2.48 31.81, 2 26.4 C1.52 20.99, 2.46 14.56, 5.91 10.31 C9.36 6.06, 14.87 1.03, 22.72 0.9 C30.58 0.77, 47.26 6.77, 53.04 9.52 C58.81 12.27, 57.33 16.77, 57.37 17.39 M35.15 -0.91 C41.18 -1.55, 49.07 0.73, 52.83 5.36 C56.58 9.99, 57.69 20.94, 57.69 26.87 C57.68 32.8, 56.15 36.74, 52.8 40.93 C49.46 45.12, 43.95 50.54, 37.61 52.02 C31.28 53.5, 20.45 52.72, 14.78 49.82 C9.12 46.91, 5.79 39.7, 3.6 34.58 C1.42 29.46, 0.44 24.66, 1.68 19.1 C2.92 13.54, 5.65 4.67, 11.03 1.21 C16.41 -2.24, 30.37 -1.52, 33.96 -1.63 C37.54 -1.74, 33.13 -0.57, 32.51 0.56" stroke="#1971c2" stroke-width="1" fill="none"></path></g><g transform="translate(1097.3868026679193 22.968777079743177) rotate(0 6.399993896484375 12.5)"><text x="6.399993896484375" y="0" font-family="Virgil, Segoe UI Emoji" font-size="20px" fill="#1971c2" text-anchor="middle" style="white-space: pre;" direction="ltr" dominant-baseline="text-before-edge">4</text></g><g stroke-linecap="round" transform="translate(1073 438) rotate(0 30 25.5)"><path d="M27.67 1.65 C33.35 1.51, 41.52 3.54, 46.54 6.34 C51.55 9.13, 56.29 13.26, 57.76 18.41 C59.23 23.56, 57.89 32.44, 55.37 37.23 C52.85 42.03, 48.36 45.25, 42.65 47.17 C36.93 49.1, 27.09 50.17, 21.06 48.78 C15.03 47.39, 9.62 43.32, 6.49 38.83 C3.35 34.34, 1.47 27.44, 2.27 21.83 C3.07 16.22, 2.78 7.36, 11.27 5.15 C19.77 2.95, 45.73 4.1, 53.25 8.62 C60.77 13.14, 56.88 31.62, 56.39 32.28 M8.83 9.05 C12.97 5.13, 21.79 -1.64, 28.62 -2.32 C35.46 -3.01, 44.5 1.54, 49.82 4.93 C55.14 8.32, 59.37 12.9, 60.55 18.02 C61.74 23.13, 60.06 30.4, 56.93 35.62 C53.81 40.84, 47.38 46.47, 41.83 49.35 C36.28 52.24, 30.06 54.28, 23.62 52.91 C17.18 51.53, 7.36 46.32, 3.2 41.11 C-0.96 35.89, -2.1 26.95, -1.35 21.6 C-0.6 16.26, 5.55 10.89, 7.72 9.04 C9.89 7.18, 11.33 10.63, 11.65 10.48" stroke="#1971c2" stroke-width="1" fill="none"></path></g><g transform="translate(1096.6068038886224 450.9687770797432) rotate(0 6.17999267578125 12.5)"><text x="6.17999267578125" y="0" font-family="Virgil, Segoe UI Emoji" font-size="20px" fill="#1971c2" text-anchor="middle" style="white-space: pre;" direction="ltr" dominant-baseline="text-before-edge">5</text></g><g stroke-linecap="round" transform="translate(556 626) rotate(0 30 25.5)"><path d="M22.91 -0.61 C28.86 -2.25, 37.39 1.55, 42.74 3.94 C48.08 6.34, 52.08 9.24, 54.97 13.78 C57.87 18.33, 61.46 25.63, 60.11 31.22 C58.75 36.8, 52.52 43.98, 46.85 47.31 C41.18 50.65, 32.59 51.62, 26.07 51.23 C19.54 50.84, 11.73 48.5, 7.7 44.96 C3.67 41.41, 2.13 35.26, 1.89 29.96 C1.66 24.66, -0.7 17.64, 6.32 13.15 C13.34 8.67, 35.11 2.02, 44.03 3.05 C52.94 4.09, 59.86 19.06, 59.83 19.38 M5.09 11.77 C8.13 7.29, 13.77 1.11, 20.61 -0.11 C27.45 -1.34, 39.68 1.63, 46.14 4.41 C52.6 7.2, 57.34 11.43, 59.35 16.61 C61.36 21.78, 60.54 30.11, 58.19 35.44 C55.84 40.76, 50.89 45.59, 45.25 48.55 C39.62 51.52, 30.38 54.06, 24.39 53.23 C18.39 52.41, 13.77 47.71, 9.29 43.61 C4.8 39.51, -2.25 34.49, -2.51 28.66 C-2.78 22.82, 6.67 11.66, 7.69 8.61 C8.71 5.56, 3.35 10.13, 3.61 10.36" stroke="#1971c2" stroke-width="1" fill="none"></path></g><g transform="translate(583.076797479931 638.9687770797432) rotate(0 2.7099990844726562 12.5)"><text x="2.7099990844726562" y="0" font-family="Virgil, Segoe UI Emoji" font-size="20px" fill="#1971c2" text-anchor="middle" style="white-space: pre;" direction="ltr" dominant-baseline="text-before-edge">1</text></g><g stroke-linecap="round" transform="translate(737 625) rotate(0 30 25.5)"><path d="M6.46 8.34 C9.57 4.58, 16.75 1.69, 23.51 1.05 C30.27 0.41, 41.4 1.8, 47.02 4.51 C52.64 7.21, 55.66 12.37, 57.21 17.28 C58.77 22.18, 58.38 28.55, 56.34 33.94 C54.3 39.33, 50.12 46.72, 44.97 49.6 C39.81 52.49, 31.53 52.48, 25.41 51.27 C19.29 50.05, 12.6 46.41, 8.25 42.31 C3.89 38.2, -4.56 33.77, -0.7 26.66 C3.16 19.56, 22.21 1.85, 31.41 -0.33 C40.6 -2.51, 54.21 13.04, 54.47 13.58 M36.45 -1.53 C42.21 -0.63, 49.04 7.87, 52.95 12.45 C56.86 17.03, 59.51 21.24, 59.89 25.95 C60.26 30.67, 59.65 37.08, 55.17 40.76 C50.69 44.44, 40.27 47.15, 33 48.02 C25.72 48.89, 16.81 48.15, 11.53 45.96 C6.26 43.77, 3.22 39.44, 1.35 34.88 C-0.51 30.31, -2.31 24.3, 0.35 18.57 C3 12.85, 11.47 3.58, 17.28 0.5 C23.1 -2.58, 32.24 0.43, 35.22 0.11 C38.21 -0.21, 35.47 -1.75, 35.19 -1.41" stroke="#1971c2" stroke-width="1" fill="none"></path></g><g transform="translate(759.6668014472161 637.9687770797432) rotate(0 7.1199951171875 12.5)"><text x="7.1199951171875" y="0" font-family="Virgil, Segoe UI Emoji" font-size="20px" fill="#1971c2" text-anchor="middle" style="white-space: pre;" direction="ltr" dominant-baseline="text-before-edge">2</text></g><g stroke-linecap="round"><g transform="translate(713 647.5) rotate(0 -39.343544176407136 -0.06907436948267787)"><path d="M2.1 0.97 C-10.68 0.94, -65.33 1.84, -79.06 1.92 M-0.2 -0.97 C-13.05 -1.97, -67.12 -1.66, -80.79 -2.05" stroke="#1971c2" stroke-width="1" fill="none"></path></g><g transform="translate(713 647.5) rotate(0 -39.343544176407136 -0.06907436948267787)"><path d="M-24.58 12.9 C-17.36 8.48, -12.06 3.69, 2.06 0.21 M-24.31 12.34 C-17.39 9.29, -3.9 5.24, 2.01 -0.59" stroke="#1971c2" stroke-width="1" fill="none"></path></g><g transform="translate(713 647.5) rotate(0 -39.343544176407136 -0.06907436948267787)"><path d="M-24.82 -7.62 C-17.24 -7.64, -11.89 -8.02, 2.06 0.21 M-24.55 -8.18 C-17.91 -3.94, -4.32 -0.69, 2.01 -0.59" stroke="#1971c2" stroke-width="1" fill="none"></path></g></g><mask></mask><g stroke-linecap="round" transform="translate(566.5 703.5) rotate(0 30 25.5)"><path d="M35.22 1.97 C41.16 3.14, 49.23 6.89, 53.35 10.98 C57.47 15.07, 59.98 21.37, 59.93 26.5 C59.88 31.63, 57.63 37.4, 53.05 41.76 C48.47 46.12, 38.74 51.8, 32.43 52.65 C26.11 53.49, 20.03 50.09, 15.17 46.82 C10.3 43.55, 5.68 38.51, 3.23 33.03 C0.78 27.54, -1.88 18.99, 0.46 13.9 C2.8 8.81, 8.73 3.57, 17.29 2.47 C25.85 1.38, 44.66 4.41, 51.81 7.35 C58.96 10.29, 60.78 19.5, 60.19 20.12 M42.71 4.74 C48.32 6.72, 53.55 11.52, 55.85 15.87 C58.15 20.22, 57.79 25.82, 56.5 30.82 C55.21 35.82, 53.1 42.9, 48.11 45.88 C43.13 48.85, 33.44 49.41, 26.59 48.67 C19.74 47.94, 11.84 44.71, 7 41.45 C2.16 38.19, -2.44 34.73, -2.47 29.1 C-2.49 23.48, 3.01 12.19, 6.84 7.69 C10.68 3.19, 14.38 2.62, 20.54 2.08 C26.7 1.54, 39.73 4.6, 43.79 4.45 C47.85 4.3, 44.75 1.54, 44.89 1.18" stroke="#1971c2" stroke-width="1" fill="none"></path></g><g transform="translate(589.4768066352044 716.4687770797432) rotate(0 6.809989929199219 12.5)"><text x="6.809989929199219" y="0" font-family="Virgil, Segoe UI Emoji" font-size="20px" fill="#1971c2" text-anchor="middle" style="white-space: pre;" direction="ltr" dominant-baseline="text-before-edge">3</text></g><g stroke-linecap="round" transform="translate(747.5 702.5) rotate(0 30 25.5)"><path d="M49.26 6.02 C54.38 8.78, 59.53 14.55, 60.37 20.24 C61.21 25.93, 57.47 35.33, 54.31 40.16 C51.14 44.99, 46.84 47.7, 41.37 49.2 C35.9 50.71, 28.02 51.33, 21.5 49.17 C14.98 47.01, 5.53 41.02, 2.24 36.25 C-1.05 31.48, 0.34 25.73, 1.76 20.57 C3.17 15.41, 5.85 8.99, 10.75 5.31 C15.65 1.64, 24.24 -2.48, 31.18 -1.49 C38.12 -0.5, 48 8.69, 52.39 11.27 C56.77 13.84, 57.58 13.96, 57.5 13.94 M47.36 4.52 C52.71 7.43, 59.65 15.41, 61 20.74 C62.35 26.06, 59.25 31.94, 55.47 36.46 C51.7 40.98, 44.82 45.42, 38.36 47.87 C31.9 50.32, 22.29 53.29, 16.7 51.16 C11.12 49.02, 7.91 39.93, 4.85 35.06 C1.78 30.2, -2.84 26.55, -1.69 21.96 C-0.54 17.37, 6.03 11.5, 11.73 7.53 C17.43 3.56, 25.72 -1.22, 32.51 -1.86 C39.29 -2.51, 49.19 1.92, 52.45 3.68 C55.7 5.44, 52.83 8.02, 52.04 8.7" stroke="#1971c2" stroke-width="1" fill="none"></path></g><g transform="translate(770.8868026679193 715.4687770797432) rotate(0 6.399993896484375 12.5)"><text x="6.399993896484375" y="0" font-family="Virgil, Segoe UI Emoji" font-size="20px" fill="#1971c2" text-anchor="middle" style="white-space: pre;" direction="ltr" dominant-baseline="text-before-edge">4</text></g><g stroke-linecap="round"><g transform="translate(723.5 725) rotate(0 -40.297571145556844 -1.0774074207756712)"><path d="M1.57 -0.07 C-12.08 0.21, -66.16 1.52, -79.95 1.14 M-1.03 -2.57 C-15.22 -3.11, -68.39 -3.6, -82.16 -3.25" stroke="#1971c2" stroke-width="1" fill="none"></path></g><g transform="translate(723.5 725) rotate(0 -40.297571145556844 -1.0774074207756712)"><path d="M-26.51 10.81 C-14.4 4.71, -8.99 6.2, 3.85 -0.6 M-28.4 12.03 C-15.97 7.03, -5.23 3.96, 0.08 -1.45" stroke="#1971c2" stroke-width="1" fill="none"></path></g><g transform="translate(723.5 725) rotate(0 -40.297571145556844 -1.0774074207756712)"><path d="M-26.91 -9.71 C-14.72 -8.23, -9.17 0.86, 3.85 -0.6 M-28.79 -8.49 C-16.26 -5.49, -5.37 -0.57, 0.08 -1.45" stroke="#1971c2" stroke-width="1" fill="none"></path></g></g><mask></mask><g stroke-linecap="round" transform="translate(906 696) rotate(0 30 25.5)"><path d="M13.19 3.55 C18.09 0.08, 25.88 -0.54, 31.87 -0.22 C37.87 0.09, 44.82 1.6, 49.15 5.43 C53.48 9.26, 57.08 17.25, 57.84 22.75 C58.6 28.25, 56.84 33.81, 53.71 38.43 C50.58 43.05, 45.14 48.66, 39.06 50.48 C32.99 52.3, 23.32 51.82, 17.26 49.36 C11.2 46.9, 5.6 40.35, 2.7 35.72 C-0.2 31.1, -4.42 27.83, -0.13 21.6 C4.15 15.37, 21.26 1.69, 28.43 -1.66 C35.6 -5.01, 42.89 0.56, 42.86 1.51 M16.86 4.56 C22.1 2.27, 30.13 0.27, 36.74 1 C43.34 1.73, 52.19 4.61, 56.51 8.95 C60.83 13.29, 63.96 21.53, 62.69 27.07 C61.41 32.61, 54.12 37.81, 48.87 42.2 C43.62 46.59, 36.73 52.97, 31.18 53.39 C25.64 53.8, 20.46 48.38, 15.62 44.7 C10.79 41.02, 4.17 36.11, 2.17 31.29 C0.16 26.48, 1.46 21.08, 3.59 15.81 C5.72 10.54, 12.73 1.49, 14.94 -0.31 C17.16 -2.11, 16.8 4.49, 16.88 5.01" stroke="#1971c2" stroke-width="1" fill="none"></path></g><g transform="translate(929.6068038886224 708.9687770797432) rotate(0 6.17999267578125 12.5)"><text x="6.17999267578125" y="0" font-family="Virgil, Segoe UI Emoji" font-size="20px" fill="#1971c2" text-anchor="middle" style="white-space: pre;" direction="ltr" dominant-baseline="text-before-edge">5</text></g><g stroke-linecap="round"><g transform="translate(900.297571145557 726.5774074207757) rotate(0 -38.2818979516253 -0.6058584896104549)"><path d="M2.39 -0.99 C-10.38 -0.31, -64.11 2.26, -77.87 2.78 M0.24 -3.99 C-12.59 -3.9, -65.24 -1.02, -78.95 -0.73" stroke="#1971c2" stroke-width="1" fill="none"></path></g><g transform="translate(900.297571145557 726.5774074207757) rotate(0 -38.2818979516253 -0.6058584896104549)"><path d="M-26.69 13.66 C-14.17 6.97, -8.07 6.94, 2.46 -2.55 M-24.63 12.21 C-17.71 6.87, -12.33 6.05, 1.46 -2.43" stroke="#1971c2" stroke-width="1" fill="none"></path></g><g transform="translate(900.297571145557 726.5774074207757) rotate(0 -38.2818979516253 -0.6058584896104549)"><path d="M-27.67 -6.84 C-15.09 -8.34, -8.74 -3.15, 2.46 -2.55 M-25.62 -8.29 C-18.63 -8.62, -13.01 -4.43, 1.46 -2.43" stroke="#1971c2" stroke-width="1" fill="none"></path></g></g><mask></mask></svg>