<?xml version="1.0" encoding="utf-8" standalone="no"?>
<!DOCTYPE svg PUBLIC "-//W3C//DTD SVG 1.1//EN"
  "http://www.w3.org/Graphics/SVG/1.1/DTD/svg11.dtd">
<!-- Created with matplotlib (https://matplotlib.org/) -->
<svg height="288pt" version="1.1" viewBox="0 0 432 288" width="432pt" xmlns="http://www.w3.org/2000/svg" xmlns:xlink="http://www.w3.org/1999/xlink">
 <defs>
  <style type="text/css">
*{stroke-linecap:butt;stroke-linejoin:round;}
  </style>
 </defs>
 <g id="figure_1">
  <g id="patch_1">
   <path d="M 0 288 
L 432 288 
L 432 0 
L 0 0 
z
"/>
  </g>
  <g id="patch_2">
   <path d="M 54 256.32 
L 388.8 256.32 
L 388.8 34.56 
L 54 34.56 
z
"/>
  </g>
  <g id="pane3d_1">
   <g id="patch_3">
    <path d="M 98.382914 207.318855 
L 194.204425 152.948328 
L 192.609099 49.055174 
L 91.44491 97.905975 
" style="fill:none;opacity:0.5;stroke:#ffffff;stroke-linejoin:miter;"/>
   </g>
  </g>
  <g id="pane3d_2">
   <g id="patch_4">
    <path d="M 194.204425 152.948328 
L 349.426265 183.344961 
L 355.920561 76.318952 
L 192.609099 49.055174 
" style="fill:none;opacity:0.5;stroke:#ffffff;stroke-linejoin:miter;"/>
   </g>
  </g>
  <g id="pane3d_3">
   <g id="patch_5">
    <path d="M 98.382914 207.318855 
L 261.697263 242.720688 
L 349.426265 183.344961 
L 194.204425 152.948328 
" style="fill:#ececec;opacity:0.5;stroke:#ffffff;stroke-linejoin:miter;"/>
   </g>
  </g>
  <g id="axis3d_1">
   <g id="line2d_1">
    <path d="M 98.382914 207.318855 
L 261.697263 242.720688 
" style="fill:none;stroke:#ffffff;stroke-linecap:square;stroke-width:0.8;"/>
   </g>
   <g id="text_1">
    <!-- X -->
    <defs>
     <path d="M 6.296875 72.90625 
L 16.890625 72.90625 
L 35.015625 45.796875 
L 53.21875 72.90625 
L 63.8125 72.90625 
L 40.375 37.890625 
L 65.375 0 
L 54.78125 0 
L 34.28125 31 
L 13.625 0 
L 2.984375 0 
L 29 38.921875 
z
" id="DejaVuSans-88"/>
    </defs>
    <g style="fill:#ffffff;" transform="translate(157.982916 256.227376)scale(0.1 -0.1)">
     <use xlink:href="#DejaVuSans-88"/>
    </g>
   </g>
   <g id="xtick_1">
    <g id="line2d_2">
     <path d="M 109.161169 209.006171 
L 106.693431 210.420954 
" style="fill:none;stroke:#ffffff;stroke-linecap:square;stroke-width:0.8;"/>
    </g>
    <g id="text_2">
     <!-- −3 -->
     <defs>
      <path d="M 10.59375 35.5 
L 73.1875 35.5 
L 73.1875 27.203125 
L 10.59375 27.203125 
z
" id="DejaVuSans-8722"/>
      <path d="M 40.578125 39.3125 
Q 47.65625 37.796875 51.625 33 
Q 55.609375 28.21875 55.609375 21.1875 
Q 55.609375 10.40625 48.1875 4.484375 
Q 40.765625 -1.421875 27.09375 -1.421875 
Q 22.515625 -1.421875 17.65625 -0.515625 
Q 12.796875 0.390625 7.625 2.203125 
L 7.625 11.71875 
Q 11.71875 9.328125 16.59375 8.109375 
Q 21.484375 6.890625 26.8125 6.890625 
Q 36.078125 6.890625 40.9375 10.546875 
Q 45.796875 14.203125 45.796875 21.1875 
Q 45.796875 27.640625 41.28125 31.265625 
Q 36.765625 34.90625 28.71875 34.90625 
L 20.21875 34.90625 
L 20.21875 43.015625 
L 29.109375 43.015625 
Q 36.375 43.015625 40.234375 45.921875 
Q 44.09375 48.828125 44.09375 54.296875 
Q 44.09375 59.90625 40.109375 62.90625 
Q 36.140625 65.921875 28.71875 65.921875 
Q 24.65625 65.921875 20.015625 65.03125 
Q 15.375 64.15625 9.8125 62.3125 
L 9.8125 71.09375 
Q 15.4375 72.65625 20.34375 73.4375 
Q 25.25 74.21875 29.59375 74.21875 
Q 40.828125 74.21875 47.359375 69.109375 
Q 53.90625 64.015625 53.90625 55.328125 
Q 53.90625 49.265625 50.4375 45.09375 
Q 46.96875 40.921875 40.578125 39.3125 
z
" id="DejaVuSans-51"/>
     </defs>
     <g style="fill:#ffffff;" transform="translate(93.282118 230.024642)scale(0.1 -0.1)">
      <use xlink:href="#DejaVuSans-8722"/>
      <use x="83.789062" xlink:href="#DejaVuSans-51"/>
     </g>
    </g>
   </g>
   <g id="xtick_2">
    <g id="line2d_3">
     <path d="M 132.124988 213.979808 
L 129.684147 215.41322 
" style="fill:none;stroke:#ffffff;stroke-linecap:square;stroke-width:0.8;"/>
    </g>
    <g id="text_3">
     <!-- −2 -->
     <defs>
      <path d="M 19.1875 8.296875 
L 53.609375 8.296875 
L 53.609375 0 
L 7.328125 0 
L 7.328125 8.296875 
Q 12.9375 14.109375 22.625 23.890625 
Q 32.328125 33.6875 34.8125 36.53125 
Q 39.546875 41.84375 41.421875 45.53125 
Q 43.3125 49.21875 43.3125 52.78125 
Q 43.3125 58.59375 39.234375 62.25 
Q 35.15625 65.921875 28.609375 65.921875 
Q 23.96875 65.921875 18.8125 64.3125 
Q 13.671875 62.703125 7.8125 59.421875 
L 7.8125 69.390625 
Q 13.765625 71.78125 18.9375 73 
Q 24.125 74.21875 28.421875 74.21875 
Q 39.75 74.21875 46.484375 68.546875 
Q 53.21875 62.890625 53.21875 53.421875 
Q 53.21875 48.921875 51.53125 44.890625 
Q 49.859375 40.875 45.40625 35.40625 
Q 44.1875 33.984375 37.640625 27.21875 
Q 31.109375 20.453125 19.1875 8.296875 
z
" id="DejaVuSans-50"/>
     </defs>
     <g style="fill:#ffffff;" transform="translate(116.251931 235.09991)scale(0.1 -0.1)">
      <use xlink:href="#DejaVuSans-8722"/>
      <use x="83.789062" xlink:href="#DejaVuSans-50"/>
     </g>
    </g>
   </g>
   <g id="xtick_3">
    <g id="line2d_4">
     <path d="M 155.391897 219.01909 
L 152.978882 220.471501 
" style="fill:none;stroke:#ffffff;stroke-linecap:square;stroke-width:0.8;"/>
    </g>
    <g id="text_4">
     <!-- −1 -->
     <defs>
      <path d="M 12.40625 8.296875 
L 28.515625 8.296875 
L 28.515625 63.921875 
L 10.984375 60.40625 
L 10.984375 69.390625 
L 28.421875 72.90625 
L 38.28125 72.90625 
L 38.28125 8.296875 
L 54.390625 8.296875 
L 54.390625 0 
L 12.40625 0 
z
" id="DejaVuSans-49"/>
     </defs>
     <g style="fill:#ffffff;" transform="translate(139.525736 240.242347)scale(0.1 -0.1)">
      <use xlink:href="#DejaVuSans-8722"/>
      <use x="83.789062" xlink:href="#DejaVuSans-49"/>
     </g>
    </g>
   </g>
   <g id="xtick_4">
    <g id="line2d_5">
     <path d="M 178.967936 224.125325 
L 176.583706 225.597116 
" style="fill:none;stroke:#ffffff;stroke-linecap:square;stroke-width:0.8;"/>
    </g>
    <g id="text_5">
     <!-- 0 -->
     <defs>
      <path d="M 31.78125 66.40625 
Q 24.171875 66.40625 20.328125 58.90625 
Q 16.5 51.421875 16.5 36.375 
Q 16.5 21.390625 20.328125 13.890625 
Q 24.171875 6.390625 31.78125 6.390625 
Q 39.453125 6.390625 43.28125 13.890625 
Q 47.125 21.390625 47.125 36.375 
Q 47.125 51.421875 43.28125 58.90625 
Q 39.453125 66.40625 31.78125 66.40625 
z
M 31.78125 74.21875 
Q 44.046875 74.21875 50.515625 64.515625 
Q 56.984375 54.828125 56.984375 36.375 
Q 56.984375 17.96875 50.515625 8.265625 
Q 44.046875 -1.421875 31.78125 -1.421875 
Q 19.53125 -1.421875 13.0625 8.265625 
Q 6.59375 17.96875 6.59375 36.375 
Q 6.59375 54.828125 13.0625 64.515625 
Q 19.53125 74.21875 31.78125 74.21875 
z
" id="DejaVuSans-48"/>
     </defs>
     <g style="fill:#ffffff;" transform="translate(167.299453 245.453294)scale(0.1 -0.1)">
      <use xlink:href="#DejaVuSans-48"/>
     </g>
    </g>
   </g>
   <g id="xtick_5">
    <g id="line2d_6">
     <path d="M 202.859309 229.299857 
L 200.504853 230.791418 
" style="fill:none;stroke:#ffffff;stroke-linecap:square;stroke-width:0.8;"/>
    </g>
    <g id="text_6">
     <!-- 1 -->
     <g style="fill:#ffffff;" transform="translate(191.199632 250.73413)scale(0.1 -0.1)">
      <use xlink:href="#DejaVuSans-49"/>
     </g>
    </g>
   </g>
   <g id="xtick_6">
    <g id="line2d_7">
     <path d="M 227.072384 234.544065 
L 224.748724 236.055798 
" style="fill:none;stroke:#ffffff;stroke-linecap:square;stroke-width:0.8;"/>
    </g>
    <g id="text_7">
     <!-- 2 -->
     <g style="fill:#ffffff;" transform="translate(215.422522 256.08627)scale(0.1 -0.1)">
      <use xlink:href="#DejaVuSans-50"/>
     </g>
    </g>
   </g>
   <g id="xtick_7">
    <g id="line2d_8">
     <path d="M 251.613702 239.859366 
L 249.321894 241.391682 
" style="fill:none;stroke:#ffffff;stroke-linecap:square;stroke-width:0.8;"/>
    </g>
    <g id="text_8">
     <!-- 3 -->
     <g style="fill:#ffffff;" transform="translate(239.974704 261.511169)scale(0.1 -0.1)">
      <use xlink:href="#DejaVuSans-51"/>
     </g>
    </g>
   </g>
  </g>
  <g id="axis3d_2">
   <g id="line2d_9">
    <path d="M 349.426265 183.344961 
L 261.697263 242.720688 
" style="fill:none;stroke:#ffffff;stroke-linecap:square;stroke-width:0.8;"/>
   </g>
   <g id="text_9">
    <!-- Y -->
    <defs>
     <path d="M -0.203125 72.90625 
L 10.40625 72.90625 
L 30.609375 42.921875 
L 50.6875 72.90625 
L 61.28125 72.90625 
L 35.5 34.71875 
L 35.5 0 
L 25.59375 0 
L 25.59375 34.71875 
z
" id="DejaVuSans-89"/>
    </defs>
    <g style="fill:#ffffff;" transform="translate(332.146366 238.477734)scale(0.1 -0.1)">
     <use xlink:href="#DejaVuSans-89"/>
    </g>
   </g>
   <g id="xtick_8">
    <g id="line2d_10">
     <path d="M 266.338974 238.363782 
L 270.42902 239.244392 
" style="fill:none;stroke:#ffffff;stroke-linecap:square;stroke-width:0.8;"/>
    </g>
    <g id="text_10">
     <!-- −3 -->
     <g style="fill:#ffffff;" transform="translate(273.661251 257.6)scale(0.1 -0.1)">
      <use xlink:href="#DejaVuSans-8722"/>
      <use x="83.789062" xlink:href="#DejaVuSans-51"/>
     </g>
    </g>
   </g>
   <g id="xtick_9">
    <g id="line2d_11">
     <path d="M 279.844746 229.237038 
L 283.902285 230.097357 
" style="fill:none;stroke:#ffffff;stroke-linecap:square;stroke-width:0.8;"/>
    </g>
    <g id="text_11">
     <!-- −2 -->
     <g style="fill:#ffffff;" transform="translate(286.99422 248.340285)scale(0.1 -0.1)">
      <use xlink:href="#DejaVuSans-8722"/>
      <use x="83.789062" xlink:href="#DejaVuSans-50"/>
     </g>
    </g>
   </g>
   <g id="xtick_10">
    <g id="line2d_12">
     <path d="M 293.041244 220.319292 
L 297.066685 221.160011 
" style="fill:none;stroke:#ffffff;stroke-linecap:square;stroke-width:0.8;"/>
    </g>
    <g id="text_12">
     <!-- −1 -->
     <g style="fill:#ffffff;" transform="translate(300.021931 239.292569)scale(0.1 -0.1)">
      <use xlink:href="#DejaVuSans-8722"/>
      <use x="83.789062" xlink:href="#DejaVuSans-49"/>
     </g>
    </g>
   </g>
   <g id="xtick_11">
    <g id="line2d_13">
     <path d="M 305.938973 211.603444 
L 309.932719 212.425227 
" style="fill:none;stroke:#ffffff;stroke-linecap:square;stroke-width:0.8;"/>
    </g>
    <g id="text_13">
     <!-- 0 -->
     <g style="fill:#ffffff;" transform="translate(316.944595 230.449656)scale(0.1 -0.1)">
      <use xlink:href="#DejaVuSans-48"/>
     </g>
    </g>
   </g>
   <g id="xtick_12">
    <g id="line2d_14">
     <path d="M 318.547963 203.082715 
L 322.510418 203.886194 
" style="fill:none;stroke:#ffffff;stroke-linecap:square;stroke-width:0.8;"/>
    </g>
    <g id="text_14">
     <!-- 1 -->
     <g style="fill:#ffffff;" transform="translate(329.392423 221.804668)scale(0.1 -0.1)">
      <use xlink:href="#DejaVuSans-49"/>
     </g>
    </g>
   </g>
   <g id="xtick_13">
    <g id="line2d_15">
     <path d="M 330.877805 194.750625 
L 334.809367 195.536406 
" style="fill:none;stroke:#ffffff;stroke-linecap:square;stroke-width:0.8;"/>
    </g>
    <g id="text_15">
     <!-- 2 -->
     <g style="fill:#ffffff;" transform="translate(341.564722 213.351035)scale(0.1 -0.1)">
      <use xlink:href="#DejaVuSans-50"/>
     </g>
    </g>
   </g>
   <g id="xtick_14">
    <g id="line2d_16">
     <path d="M 342.937666 186.600979 
L 346.838731 187.369639 
" style="fill:none;stroke:#ffffff;stroke-linecap:square;stroke-width:0.8;"/>
    </g>
    <g id="text_16">
     <!-- 3 -->
     <g style="fill:#ffffff;" transform="translate(353.470539 205.082473)scale(0.1 -0.1)">
      <use xlink:href="#DejaVuSans-51"/>
     </g>
    </g>
   </g>
  </g>
  <g id="axis3d_3">
   <g id="line2d_17">
    <path d="M 349.426265 183.344961 
L 355.920561 76.318952 
" style="fill:none;stroke:#ffffff;stroke-linecap:square;stroke-width:0.8;"/>
   </g>
   <g id="text_17">
    <!-- Z -->
    <defs>
     <path d="M 5.609375 72.90625 
L 62.890625 72.90625 
L 62.890625 65.375 
L 16.796875 8.296875 
L 64.015625 8.296875 
L 64.015625 0 
L 4.5 0 
L 4.5 7.515625 
L 50.59375 64.59375 
L 5.609375 64.59375 
z
" id="DejaVuSans-90"/>
    </defs>
    <g style="fill:#ffffff;" transform="translate(391.912739 130.168844)scale(0.1 -0.1)">
     <use xlink:href="#DejaVuSans-90"/>
    </g>
   </g>
   <g id="xtick_15">
    <g id="line2d_18">
     <path d="M 348.94368 169.558336 
L 352.85825 170.310593 
" style="fill:none;stroke:#ffffff;stroke-linecap:square;stroke-width:0.8;"/>
    </g>
    <g id="text_18">
     <!-- −0.75 -->
     <defs>
      <path d="M 10.6875 12.40625 
L 21 12.40625 
L 21 0 
L 10.6875 0 
z
" id="DejaVuSans-46"/>
      <path d="M 8.203125 72.90625 
L 55.078125 72.90625 
L 55.078125 68.703125 
L 28.609375 0 
L 18.3125 0 
L 43.21875 64.59375 
L 8.203125 64.59375 
z
" id="DejaVuSans-55"/>
      <path d="M 10.796875 72.90625 
L 49.515625 72.90625 
L 49.515625 64.59375 
L 19.828125 64.59375 
L 19.828125 46.734375 
Q 21.96875 47.46875 24.109375 47.828125 
Q 26.265625 48.1875 28.421875 48.1875 
Q 40.625 48.1875 47.75 41.5 
Q 54.890625 34.8125 54.890625 23.390625 
Q 54.890625 11.625 47.5625 5.09375 
Q 40.234375 -1.421875 26.90625 -1.421875 
Q 22.3125 -1.421875 17.546875 -0.640625 
Q 12.796875 0.140625 7.71875 1.703125 
L 7.71875 11.625 
Q 12.109375 9.234375 16.796875 8.0625 
Q 21.484375 6.890625 26.703125 6.890625 
Q 35.15625 6.890625 40.078125 11.328125 
Q 45.015625 15.765625 45.015625 23.390625 
Q 45.015625 31 40.078125 35.4375 
Q 35.15625 39.890625 26.703125 39.890625 
Q 22.75 39.890625 18.8125 39.015625 
Q 14.890625 38.140625 10.796875 36.28125 
z
" id="DejaVuSans-53"/>
     </defs>
     <g style="fill:#ffffff;" transform="translate(354.290234 175.591984)scale(0.1 -0.1)">
      <use xlink:href="#DejaVuSans-8722"/>
      <use x="83.789062" xlink:href="#DejaVuSans-48"/>
      <use x="147.412109" xlink:href="#DejaVuSans-46"/>
      <use x="179.199219" xlink:href="#DejaVuSans-55"/>
      <use x="242.822266" xlink:href="#DejaVuSans-53"/>
     </g>
    </g>
   </g>
   <g id="xtick_16">
    <g id="line2d_19">
     <path d="M 349.706503 156.852211 
L 353.646174 157.595764 
" style="fill:none;stroke:#ffffff;stroke-linecap:square;stroke-width:0.8;"/>
    </g>
    <g id="text_19">
     <!-- −0.50 -->
     <g style="fill:#ffffff;" transform="translate(355.179273 162.903993)scale(0.1 -0.1)">
      <use xlink:href="#DejaVuSans-8722"/>
      <use x="83.789062" xlink:href="#DejaVuSans-48"/>
      <use x="147.412109" xlink:href="#DejaVuSans-46"/>
      <use x="179.199219" xlink:href="#DejaVuSans-53"/>
      <use x="242.822266" xlink:href="#DejaVuSans-48"/>
     </g>
    </g>
   </g>
   <g id="xtick_17">
    <g id="line2d_20">
     <path d="M 350.478845 143.987525 
L 354.443942 144.722099 
" style="fill:none;stroke:#ffffff;stroke-linecap:square;stroke-width:0.8;"/>
    </g>
    <g id="text_20">
     <!-- −0.25 -->
     <g style="fill:#ffffff;" transform="translate(356.079381 150.058018)scale(0.1 -0.1)">
      <use xlink:href="#DejaVuSans-8722"/>
      <use x="83.789062" xlink:href="#DejaVuSans-48"/>
      <use x="147.412109" xlink:href="#DejaVuSans-46"/>
      <use x="179.199219" xlink:href="#DejaVuSans-50"/>
      <use x="242.822266" xlink:href="#DejaVuSans-53"/>
     </g>
    </g>
   </g>
   <g id="xtick_18">
    <g id="line2d_21">
     <path d="M 351.260886 130.961293 
L 355.251738 131.686601 
" style="fill:none;stroke:#ffffff;stroke-linecap:square;stroke-width:0.8;"/>
    </g>
    <g id="text_21">
     <!-- 0.00 -->
     <g style="fill:#ffffff;" transform="translate(361.180611 137.051088)scale(0.1 -0.1)">
      <use xlink:href="#DejaVuSans-48"/>
      <use x="63.623047" xlink:href="#DejaVuSans-46"/>
      <use x="95.410156" xlink:href="#DejaVuSans-48"/>
      <use x="159.033203" xlink:href="#DejaVuSans-48"/>
     </g>
    </g>
   </g>
   <g id="xtick_19">
    <g id="line2d_22">
     <path d="M 352.052809 117.770451 
L 356.069754 118.486201 
" style="fill:none;stroke:#ffffff;stroke-linecap:square;stroke-width:0.8;"/>
    </g>
    <g id="text_22">
     <!-- 0.25 -->
     <g style="fill:#ffffff;" transform="translate(362.103489 123.88016)scale(0.1 -0.1)">
      <use xlink:href="#DejaVuSans-48"/>
      <use x="63.623047" xlink:href="#DejaVuSans-46"/>
      <use x="95.410156" xlink:href="#DejaVuSans-50"/>
      <use x="159.033203" xlink:href="#DejaVuSans-53"/>
     </g>
    </g>
   </g>
   <g id="xtick_20">
    <g id="line2d_23">
     <path d="M 352.854803 104.41186 
L 356.898183 105.117748 
" style="fill:none;stroke:#ffffff;stroke-linecap:square;stroke-width:0.8;"/>
    </g>
    <g id="text_23">
     <!-- 0.50 -->
     <g style="fill:#ffffff;" transform="translate(363.038077 110.542111)scale(0.1 -0.1)">
      <use xlink:href="#DejaVuSans-48"/>
      <use x="63.623047" xlink:href="#DejaVuSans-46"/>
      <use x="95.410156" xlink:href="#DejaVuSans-53"/>
      <use x="159.033203" xlink:href="#DejaVuSans-48"/>
     </g>
    </g>
   </g>
   <g id="xtick_21">
    <g id="line2d_24">
     <path d="M 353.667061 90.8823 
L 357.737226 91.578014 
" style="fill:none;stroke:#ffffff;stroke-linecap:square;stroke-width:0.8;"/>
    </g>
    <g id="text_24">
     <!-- 0.75 -->
     <g style="fill:#ffffff;" transform="translate(363.984599 97.033742)scale(0.1 -0.1)">
      <use xlink:href="#DejaVuSans-48"/>
      <use x="63.623047" xlink:href="#DejaVuSans-46"/>
      <use x="95.410156" xlink:href="#DejaVuSans-55"/>
      <use x="159.033203" xlink:href="#DejaVuSans-53"/>
     </g>
    </g>
   </g>
  </g>
  <g id="axes_1">
   <g id="Line3DCollection_1">
    <path clip-path="url(#p39a12e86c7)" d="M 111.497483 145.054115 
L 118.071762 130.333176 
L 124.89398 117.72626 
L 132.010226 108.750521 
L 139.430306 104.575928 
L 147.127479 105.858132 
L 155.044184 112.63815 
L 163.102908 124.334367 
L 171.219904 139.829137 
L 179.318825 157.628019 
L 187.341655 176.054484 
L 195.255335 193.441786 
L 203.053774 208.294131 
L 210.755876 219.404719 
L 218.40065 225.931649 
L 226.040488 227.440338 
L 233.733436 223.922384 
L 241.535021 215.797165 
L 249.490102 203.896298 
L 257.625295 189.424709 
" style="fill:none;stroke:#ff0000;stroke-opacity:0.5;"/>
    <path clip-path="url(#p39a12e86c7)" d="M 116.343975 143.228962 
L 123.014886 130.072273 
L 129.9085 118.842788 
L 137.062583 110.898309 
L 144.483043 107.281532 
L 152.144275 108.575239 
L 159.994573 114.815961 
L 167.965776 125.487048 
L 175.985189 139.593043 
L 183.987315 155.797371 
L 191.92322 172.592626 
L 199.7662 188.471137 
L 207.513446 202.071488 
L 215.184205 212.289004 
L 222.815312 218.34947 
L 230.455037 219.852103 
L 238.155964 216.78932 
L 245.967475 209.548247 
L 253.928318 198.894026 
L 262.05984 185.929986 
" style="fill:none;stroke:#ff0000;stroke-opacity:0.5;"/>
    <path clip-path="url(#p39a12e86c7)" d="M 121.185891 142.089132 
L 128.011147 131.941098 
L 135.01672 123.350976 
L 142.229143 117.3783 
L 149.65047 114.83021 
L 157.259134 116.155554 
L 165.014449 121.3826 
L 172.864035 130.113961 
L 180.752743 141.580004 
L 188.631398 154.739116 
L 196.463806 168.404544 
L 204.231067 181.375581 
L 211.932902 192.555166 
L 219.586254 201.043433 
L 227.221752 206.204191 
L 234.878712 207.706328 
L 242.599269 205.543826 
L 250.422185 200.037053 
L 258.376809 191.815314 
L 266.477766 181.777913 
" style="fill:none;stroke:#ff0000;stroke-opacity:0.5;"/>
    <path clip-path="url(#p39a12e86c7)" d="M 126.01212 141.491866 
L 133.025463 135.471266 
L 140.164149 130.479232 
L 147.442926 127.181662 
L 154.861352 126.080223 
L 162.404774 127.451956 
L 170.047335 131.314437 
L 177.756554 137.422881 
L 185.498679 145.299771 
L 193.243897 154.29168 
L 200.970579 163.64359 
L 208.667979 172.579412 
L 216.337139 180.378542 
L 223.990087 186.441122 
L 231.647564 190.338033 
L 239.335704 191.844304 
L 247.082054 190.95607 
L 254.911373 187.891486 
L 262.841624 183.075531 
L 270.880614 177.108156 
" style="fill:none;stroke:#ff0000;stroke-opacity:0.5;"/>
    <path clip-path="url(#p39a12e86c7)" d="M 130.810622 141.243381 
L 138.020603 140.035019 
L 145.294079 139.204699 
L 152.63553 138.981733 
L 160.044275 139.536624 
L 167.514957 140.962765 
L 175.038645 143.266155 
L 182.604373 146.364517 
L 190.200893 150.095941 
L 197.818375 154.235947 
L 205.449823 158.52081 
L 213.092014 162.674359 
L 220.745853 166.435303 
L 228.416122 169.582386 
L 236.11068 171.955171 
L 243.839234 173.468846 
L 251.611835 174.122068 
L 259.437298 173.997314 
L 267.321734 173.253723 
L 275.267397 172.112809 
" style="fill:none;stroke:#ff0000;stroke-opacity:0.5;"/>
    <path clip-path="url(#p39a12e86c7)" d="M 135.569854 141.119105 
L 142.961758 144.916678 
L 150.354789 148.37756 
L 157.746048 151.302488 
L 165.137064 153.545373 
L 172.533241 155.026927 
L 179.942859 155.742075 
L 187.375761 155.760614 
L 194.841913 155.221094 
L 202.349991 154.318263 
L 209.906187 153.284957 
L 217.513371 152.3698 
L 225.170749 151.812685 
L 232.874051 151.820388 
L 240.616253 152.544987 
L 248.388744 154.067608 
L 256.182763 156.389537 
L 263.990913 159.431863 
L 271.80851 163.043725 
L 279.634576 167.018107 
" style="fill:none;stroke:#ff0000;stroke-opacity:0.5;"/>
    <path clip-path="url(#p39a12e86c7)" d="M 140.280019 140.886474 
L 147.820256 149.388578 
L 155.305067 156.847023 
L 162.727518 162.683685 
L 170.093314 166.480343 
L 177.418859 168.011899 
L 184.728241 167.263725 
L 192.04953 164.433326 
L 199.41077 159.916311 
L 206.836069 154.276272 
L 214.342194 148.198433 
L 221.936106 142.428208 
L 229.613837 137.698238 
L 237.361 134.650607 
L 245.154997 133.76374 
L 252.968706 135.294869 
L 260.77509 139.247755 
L 268.551983 145.371522 
L 276.286208 153.190907 
L 283.976362 162.062494 
" style="fill:none;stroke:#ff0000;stroke-opacity:0.5;"/>
    <path clip-path="url(#p39a12e86c7)" d="M 144.933999 140.327857 
L 152.57607 152.782234 
L 160.117527 163.572588 
L 167.550411 171.82048 
L 174.885582 176.897698 
L 182.149369 178.468574 
L 189.378863 176.511072 
L 196.616411 171.318983 
L 203.903758 163.485341 
L 211.276313 153.864762 
L 218.758056 143.511316 
L 226.357736 133.589871 
L 234.067054 125.263353 
L 241.861428 119.565246 
L 249.703578 117.274074 
L 257.549621 118.811228 
L 265.356717 124.182539 
L 273.090895 132.976337 
L 280.733535 144.418561 
L 288.285361 157.473008 
" style="fill:none;stroke:#ff0000;stroke-opacity:0.5;"/>
    <path clip-path="url(#p39a12e86c7)" d="M 149.527902 139.261366 
L 157.219 154.54826 
L 164.779758 167.711457 
L 172.203349 177.667289 
L 179.505593 183.647245 
L 186.720469 185.242873 
L 193.89422 182.427166 
L 201.078655 175.55697 
L 208.324138 165.356682 
L 215.672696 152.879027 
L 223.15183 139.43601 
L 230.769817 126.494153 
L 238.513453 115.534052 
L 246.349097 107.884703 
L 254.227428 104.555073 
L 262.091536 106.093896 
L 269.887036 112.508473 
L 277.572224 123.262119 
L 285.126206 137.351059 
L 292.553474 153.442323 
" style="fill:none;stroke:#ff0000;stroke-opacity:0.5;"/>
    <path clip-path="url(#p39a12e86c7)" d="M 154.061213 137.557741 
L 161.748633 154.301514 
L 169.293637 168.679689 
L 176.691662 179.505985 
L 183.962211 185.942776 
L 191.143728 187.546111 
L 198.287073 184.286534 
L 205.448273 176.55155 
L 212.680972 165.130104 
L 220.02903 151.173729 
L 227.519873 136.125329 
L 235.159459 121.607227 
L 242.929951 109.266787 
L 250.791113 100.590276 
L 258.68592 96.710564 
L 266.549916 98.245265 
L 274.322772 105.202417 
L 281.959683 116.977602 
L 289.440225 132.443438 
L 296.772962 150.108953 
" style="fill:none;stroke:#ff0000;stroke-opacity:0.5;"/>
    <path clip-path="url(#p39a12e86c7)" d="M 158.536548 135.151993 
L 166.173286 151.850317 
L 173.673297 166.18907 
L 181.034495 176.984317 
L 188.278016 183.399956 
L 195.44302 184.992811 
L 202.580161 181.7335 
L 209.744362 174.008903 
L 216.987338 162.606585 
L 224.350315 148.675866 
L 231.857557 133.656573 
L 239.511603 119.167211 
L 247.291283 106.850894 
L 255.153496 98.189757 
L 263.039191 94.313334 
L 270.88301 95.837348 
L 278.624959 102.769784 
L 286.22175 114.508033 
L 293.65541 129.928012 
L 300.937536 147.542901 
" style="fill:none;stroke:#ff0000;stroke-opacity:0.5;"/>
    <path clip-path="url(#p39a12e86c7)" d="M 162.959111 132.049003 
L 170.508207 147.209799 
L 177.942205 160.262961 
L 185.261072 170.13137 
L 192.485115 176.05085 
L 199.650303 177.615167 
L 206.802311 174.797526 
L 213.989921 167.952964 
L 221.258199 157.801942 
L 228.64196 145.390973 
L 236.160108 132.023588 
L 243.811679 119.155944 
L 251.574507 108.25728 
L 259.407291 100.645678 
L 267.255322 97.32137 
L 275.059292 98.82815 
L 282.765721 105.173183 
L 290.336941 115.824496 
L 297.758602 129.786944 
L 305.043322 145.738514 
" style="fill:none;stroke:#ff0000;stroke-opacity:0.5;"/>
    <path clip-path="url(#p39a12e86c7)" d="M 167.335906 128.322725 
L 174.773277 140.599765 
L 182.129747 151.23335 
L 189.40654 159.354225 
L 196.620648 164.340427 
L 203.801137 165.859547 
L 210.984351 163.889843 
L 218.208503 158.722426 
L 225.508145 150.944608 
L 232.908964 141.402241 
L 240.423467 131.137801 
L 248.048211 121.302417 
L 255.763206 113.044365 
L 263.533981 107.383367 
L 271.316358 105.087111 
L 279.063408 106.570922 
L 286.733467 111.840453 
L 294.297737 120.489806 
L 301.746016 131.755602 
L 309.089564 144.615436 
" style="fill:none;stroke:#ff0000;stroke-opacity:0.5;"/>
    <path clip-path="url(#p39a12e86c7)" d="M 171.674821 124.109096 
L 178.99046 132.427149 
L 186.267566 139.719048 
L 193.507676 145.415546 
L 200.722228 149.104664 
L 207.93022 150.564638 
L 215.155058 149.781125 
L 222.420955 146.948853 
L 229.74927 142.457663 
L 237.155173 136.862606 
L 244.645029 130.838063 
L 252.214916 125.117114 
L 259.850591 120.419747 
L 267.529098 117.376527 
L 275.221932 116.457026 
L 282.899391 117.913589 
L 290.535461 121.749824 
L 298.112411 127.719479 
L 305.624323 135.355992 
L 313.078964 144.027466 
" style="fill:none;stroke:#ff0000;stroke-opacity:0.5;"/>
    <path clip-path="url(#p39a12e86c7)" d="M 175.983688 119.593149 
L 183.181211 123.252999 
L 190.385917 126.582918 
L 197.598658 129.387776 
L 204.823537 131.524499 
L 212.06714 132.915446 
L 219.337437 133.555671 
L 226.642528 133.513582 
L 233.989379 132.924913 
L 241.382705 131.980396 
L 248.824162 130.907984 
L 256.311964 129.951011 
L 263.840999 129.344172 
L 271.403451 129.289699 
L 278.989888 129.93628 
L 286.590653 131.363201 
L 294.1974 133.57168 
L 301.80453 136.48453 
L 309.410325 139.954203 
L 317.017601 143.778209 
" style="fill:none;stroke:#ff0000;stroke-opacity:0.5;"/>
    <path clip-path="url(#p39a12e86c7)" d="M 180.269411 114.991336 
L 187.364081 113.744356 
L 194.51028 112.865415 
L 201.707167 112.577714 
L 208.950329 113.047145 
L 216.232657 114.364529 
L 223.545602 116.535652 
L 230.880646 119.480412 
L 238.230756 123.041215 
L 245.591613 126.999538 
L 252.962429 131.098586 
L 260.346235 135.069358 
L 267.749621 138.657264 
L 275.18194 141.64666 
L 282.654103 143.88115 
L 290.177087 145.278067 
L 297.760353 145.836138 
L 305.410353 145.635829 
L 313.129306 144.832325 
L 320.914435 143.641547 
" style="fill:none;stroke:#ff0000;stroke-opacity:0.5;"/>
    <path clip-path="url(#p39a12e86c7)" d="M 184.537265 110.530494 
L 191.55273 104.612835 
L 198.658535 99.693731 
L 205.851172 96.417258 
L 213.117241 95.268119 
L 220.435927 96.513729 
L 227.782704 100.170897 
L 235.133652 106.003077 
L 242.469669 113.548754 
L 249.779842 122.175935 
L 257.063488 131.153598 
L 264.330594 139.729407 
L 271.6007 147.203936 
L 278.900462 152.994297 
L 286.260246 156.68316 
L 293.710156 158.051666 
L 301.275879 157.096192 
L 308.974738 154.029228 
L 316.812372 149.26431 
L 324.780457 143.384565 
" style="fill:none;stroke:#ff0000;stroke-opacity:0.5;"/>
    <path clip-path="url(#p39a12e86c7)" d="M 188.790437 106.425359 
L 195.754602 96.544085 
L 202.839072 88.170437 
L 210.036866 82.322629 
L 217.32595 79.774921 
L 224.673188 80.957252 
L 232.040308 85.896411 
L 239.390847 94.211307 
L 246.696762 105.163477 
L 253.943494 117.752093 
L 261.132696 130.83467 
L 268.282361 143.252715 
L 275.424605 153.945309 
L 282.601618 162.040398 
L 289.860425 166.920454 
L 297.247008 168.26383 
L 304.800271 166.064927 
L 312.546263 160.635442 
L 320.493157 152.586675 
L 328.627577 142.790473 
" style="fill:none;stroke:#ff0000;stroke-opacity:0.5;"/>
    <path clip-path="url(#p39a12e86c7)" d="M 193.029852 102.856886 
L 199.970426 90.125067 
L 207.050178 79.252098 
L 214.258216 71.534567 
L 221.565178 67.965665 
L 228.928384 69.099431 
L 236.299596 74.97018 
L 243.633965 85.086131 
L 250.898343 98.498905 
L 258.077385 113.932554 
L 265.176459 129.944068 
L 272.221212 145.085568 
L 279.254276 158.045309 
L 286.329931 167.755681 
L 293.507547 173.466656 
L 300.844456 174.789494 
L 308.388722 171.717191 
L 316.172193 164.625949 
L 324.204308 154.257697 
L 332.467374 141.679303 
" style="fill:none;stroke:#ff0000;stroke-opacity:0.5;"/>
    <path clip-path="url(#p39a12e86c7)" d="M 197.254302 99.953703 
L 204.194666 85.778281 
L 211.280907 73.63452 
L 218.498426 64.962491 
L 225.812839 60.869314 
L 233.175924 61.973979 
L 240.534427 68.314696 
L 247.84003 79.341628 
L 255.058444 93.99699 
L 262.175808 110.862811 
L 269.201428 128.342909 
L 276.166779 144.84413 
L 283.121458 158.930866 
L 290.127064 169.44049 
L 297.249926 175.559481 
L 304.553361 176.867248 
L 312.089888 173.356092 
L 319.893729 165.432774 
L 327.974073 153.90175 
L 336.309839 139.924582 
" style="fill:none;stroke:#ff0000;stroke-opacity:0.5;"/>
    <path clip-path="url(#p39a12e86c7)" d="M 111.497483 145.054115 
L 116.343975 143.228962 
L 121.185891 142.089132 
L 126.01212 141.491866 
L 130.810622 141.243381 
L 135.569854 141.119105 
L 140.280019 140.886474 
L 144.933999 140.327857 
L 149.527902 139.261366 
L 154.061213 137.557741 
L 158.536548 135.151993 
L 162.959111 132.049003 
L 167.335906 128.322725 
L 171.674821 124.109096 
L 175.983688 119.593149 
L 180.269411 114.991336 
L 184.537265 110.530494 
L 188.790437 106.425359 
L 193.029852 102.856886 
L 197.254302 99.953703 
" style="fill:none;stroke:#ff0000;stroke-opacity:0.5;"/>
    <path clip-path="url(#p39a12e86c7)" d="M 118.071762 130.333176 
L 123.014886 130.072273 
L 128.011147 131.941098 
L 133.025463 135.471266 
L 138.020603 140.035019 
L 142.961758 144.916678 
L 147.820256 149.388578 
L 152.57607 152.782234 
L 157.219 154.54826 
L 161.748633 154.301514 
L 166.173286 151.850317 
L 170.508207 147.209799 
L 174.773277 140.599765 
L 178.99046 132.427149 
L 183.181211 123.252999 
L 187.364081 113.744356 
L 191.55273 104.612835 
L 195.754602 96.544085 
L 199.970426 90.125067 
L 204.194666 85.778281 
" style="fill:none;stroke:#ff0000;stroke-opacity:0.5;"/>
    <path clip-path="url(#p39a12e86c7)" d="M 124.89398 117.72626 
L 129.9085 118.842788 
L 135.01672 123.350976 
L 140.164149 130.479232 
L 145.294079 139.204699 
L 150.354789 148.37756 
L 155.305067 156.847023 
L 160.117527 163.572588 
L 164.779758 167.711457 
L 169.293637 168.679689 
L 173.673297 166.18907 
L 177.942205 160.262961 
L 182.129747 151.23335 
L 186.267566 139.719048 
L 190.385917 126.582918 
L 194.51028 112.865415 
L 198.658535 99.693731 
L 202.839072 88.170437 
L 207.050178 79.252098 
L 211.280907 73.63452 
" style="fill:none;stroke:#ff0000;stroke-opacity:0.5;"/>
    <path clip-path="url(#p39a12e86c7)" d="M 132.010226 108.750521 
L 137.062583 110.898309 
L 142.229143 117.3783 
L 147.442926 127.181662 
L 152.63553 138.981733 
L 157.746048 151.302488 
L 162.727518 162.683685 
L 167.550411 171.82048 
L 172.203349 177.667289 
L 176.691662 179.505985 
L 181.034495 176.984317 
L 185.261072 170.13137 
L 189.40654 159.354225 
L 193.507676 145.415546 
L 197.598658 129.387776 
L 201.707167 112.577714 
L 205.851172 96.417258 
L 210.036866 82.322629 
L 214.258216 71.534567 
L 218.498426 64.962491 
" style="fill:none;stroke:#ff0000;stroke-opacity:0.5;"/>
    <path clip-path="url(#p39a12e86c7)" d="M 139.430306 104.575928 
L 144.483043 107.281532 
L 149.65047 114.83021 
L 154.861352 126.080223 
L 160.044275 139.536624 
L 165.137064 153.545373 
L 170.093314 166.480343 
L 174.885582 176.897698 
L 179.505593 183.647245 
L 183.962211 185.942776 
L 188.278016 183.399956 
L 192.485115 176.05085 
L 196.620648 164.340427 
L 200.722228 149.104664 
L 204.823537 131.524499 
L 208.950329 113.047145 
L 213.117241 95.268119 
L 217.32595 79.774921 
L 221.565178 67.965665 
L 225.812839 60.869314 
" style="fill:none;stroke:#ff0000;stroke-opacity:0.5;"/>
    <path clip-path="url(#p39a12e86c7)" d="M 147.127479 105.858132 
L 152.144275 108.575239 
L 157.259134 116.155554 
L 162.404774 127.451956 
L 167.514957 140.962765 
L 172.533241 155.026927 
L 177.418859 168.011899 
L 182.149369 178.468574 
L 186.720469 185.242873 
L 191.143728 187.546111 
L 195.44302 184.992811 
L 199.650303 177.615167 
L 203.801137 165.859547 
L 207.93022 150.564638 
L 212.06714 132.915446 
L 216.232657 114.364529 
L 220.435927 96.513729 
L 224.673188 80.957252 
L 228.928384 69.099431 
L 233.175924 61.973979 
" style="fill:none;stroke:#ff0000;stroke-opacity:0.5;"/>
    <path clip-path="url(#p39a12e86c7)" d="M 155.044184 112.63815 
L 159.994573 114.815961 
L 165.014449 121.3826 
L 170.047335 131.314437 
L 175.038645 143.266155 
L 179.942859 155.742075 
L 184.728241 167.263725 
L 189.378863 176.511072 
L 193.89422 182.427166 
L 198.287073 184.286534 
L 202.580161 181.7335 
L 206.802311 174.797526 
L 210.984351 163.889843 
L 215.155058 149.781125 
L 219.337437 133.555671 
L 223.545602 116.535652 
L 227.782704 100.170897 
L 232.040308 85.896411 
L 236.299596 74.97018 
L 240.534427 68.314696 
" style="fill:none;stroke:#ff0000;stroke-opacity:0.5;"/>
    <path clip-path="url(#p39a12e86c7)" d="M 163.102908 124.334367 
L 167.965776 125.487048 
L 172.864035 130.113961 
L 177.756554 137.422881 
L 182.604373 146.364517 
L 187.375761 155.760614 
L 192.04953 164.433326 
L 196.616411 171.318983 
L 201.078655 175.55697 
L 205.448273 176.55155 
L 209.744362 174.008903 
L 213.989921 167.952964 
L 218.208503 158.722426 
L 222.420955 146.948853 
L 226.642528 133.513582 
L 230.880646 119.480412 
L 235.133652 106.003077 
L 239.390847 94.211307 
L 243.633965 85.086131 
L 247.84003 79.341628 
" style="fill:none;stroke:#ff0000;stroke-opacity:0.5;"/>
    <path clip-path="url(#p39a12e86c7)" d="M 171.219904 139.829137 
L 175.985189 139.593043 
L 180.752743 141.580004 
L 185.498679 145.299771 
L 190.200893 150.095941 
L 194.841913 155.221094 
L 199.41077 159.916311 
L 203.903758 163.485341 
L 208.324138 165.356682 
L 212.680972 165.130104 
L 216.987338 162.606585 
L 221.258199 157.801942 
L 225.508145 150.944608 
L 229.74927 142.457663 
L 233.989379 132.924913 
L 238.230756 123.041215 
L 242.469669 113.548754 
L 246.696762 105.163477 
L 250.898343 98.498905 
L 255.058444 93.99699 
" style="fill:none;stroke:#ff0000;stroke-opacity:0.5;"/>
    <path clip-path="url(#p39a12e86c7)" d="M 179.318825 157.628019 
L 183.987315 155.797371 
L 188.631398 154.739116 
L 193.243897 154.29168 
L 197.818375 154.235947 
L 202.349991 154.318263 
L 206.836069 154.276272 
L 211.276313 153.864762 
L 215.672696 152.879027 
L 220.02903 151.173729 
L 224.350315 148.675866 
L 228.64196 145.390973 
L 232.908964 141.402241 
L 237.155173 136.862606 
L 241.382705 131.980396 
L 245.591613 126.999538 
L 249.779842 122.175935 
L 253.943494 117.752093 
L 258.077385 113.932554 
L 262.175808 110.862811 
" style="fill:none;stroke:#ff0000;stroke-opacity:0.5;"/>
    <path clip-path="url(#p39a12e86c7)" d="M 187.341655 176.054484 
L 191.92322 172.592626 
L 196.463806 168.404544 
L 200.970579 163.64359 
L 205.449823 158.52081 
L 209.906187 153.284957 
L 214.342194 148.198433 
L 218.758056 143.511316 
L 223.15183 139.43601 
L 227.519873 136.125329 
L 231.857557 133.656573 
L 236.160108 132.023588 
L 240.423467 131.137801 
L 244.645029 130.838063 
L 248.824162 130.907984 
L 252.962429 131.098586 
L 257.063488 131.153598 
L 261.132696 130.83467 
L 265.176459 129.944068 
L 269.201428 128.342909 
" style="fill:none;stroke:#ff0000;stroke-opacity:0.5;"/>
    <path clip-path="url(#p39a12e86c7)" d="M 195.255335 193.441786 
L 199.7662 188.471137 
L 204.231067 181.375581 
L 208.667979 172.579412 
L 213.092014 162.674359 
L 217.513371 152.3698 
L 221.936106 142.428208 
L 226.357736 133.589871 
L 230.769817 126.494153 
L 235.159459 121.607227 
L 239.511603 119.167211 
L 243.811679 119.155944 
L 248.048211 121.302417 
L 252.214916 125.117114 
L 256.311964 129.951011 
L 260.346235 135.069358 
L 264.330594 139.729407 
L 268.282361 143.252715 
L 272.221212 145.085568 
L 276.166779 144.84413 
" style="fill:none;stroke:#ff0000;stroke-opacity:0.5;"/>
    <path clip-path="url(#p39a12e86c7)" d="M 203.053774 208.294131 
L 207.513446 202.071488 
L 211.932902 192.555166 
L 216.337139 180.378542 
L 220.745853 166.435303 
L 225.170749 151.812685 
L 229.613837 137.698238 
L 234.067054 125.263353 
L 238.513453 115.534052 
L 242.929951 109.266787 
L 247.291283 106.850894 
L 251.574507 108.25728 
L 255.763206 113.044365 
L 259.850591 120.419747 
L 263.840999 129.344172 
L 267.749621 138.657264 
L 271.6007 147.203936 
L 275.424605 153.945309 
L 279.254276 158.045309 
L 283.121458 158.930866 
" style="fill:none;stroke:#ff0000;stroke-opacity:0.5;"/>
    <path clip-path="url(#p39a12e86c7)" d="M 210.755876 219.404719 
L 215.184205 212.289004 
L 219.586254 201.043433 
L 223.990087 186.441122 
L 228.416122 169.582386 
L 232.874051 151.820388 
L 237.361 134.650607 
L 241.861428 119.565246 
L 246.349097 107.884703 
L 250.791113 100.590276 
L 255.153496 98.189757 
L 259.407291 100.645678 
L 263.533981 107.383367 
L 267.529098 117.376527 
L 271.403451 129.289699 
L 275.18194 141.64666 
L 278.900462 152.994297 
L 282.601618 162.040398 
L 286.329931 167.755681 
L 290.127064 169.44049 
" style="fill:none;stroke:#ff0000;stroke-opacity:0.5;"/>
    <path clip-path="url(#p39a12e86c7)" d="M 218.40065 225.931649 
L 222.815312 218.34947 
L 227.221752 206.204191 
L 231.647564 190.338033 
L 236.11068 171.955171 
L 240.616253 152.544987 
L 245.154997 133.76374 
L 249.703578 117.274074 
L 254.227428 104.555073 
L 258.68592 96.710564 
L 263.039191 94.313334 
L 267.255322 97.32137 
L 271.316358 105.087111 
L 275.221932 116.457026 
L 278.989888 129.93628 
L 282.654103 143.88115 
L 286.260246 156.68316 
L 289.860425 166.920454 
L 293.507547 173.466656 
L 297.249926 175.559481 
" style="fill:none;stroke:#ff0000;stroke-opacity:0.5;"/>
    <path clip-path="url(#p39a12e86c7)" d="M 226.040488 227.440338 
L 230.455037 219.852103 
L 234.878712 207.706328 
L 239.335704 191.844304 
L 243.839234 173.468846 
L 248.388744 154.067608 
L 252.968706 135.294869 
L 257.549621 118.811228 
L 262.091536 106.093896 
L 266.549916 98.245265 
L 270.88301 95.837348 
L 275.059292 98.82815 
L 279.063408 106.570922 
L 282.899391 117.913589 
L 286.590653 131.363201 
L 290.177087 145.278067 
L 293.710156 158.051666 
L 297.247008 168.26383 
L 300.844456 174.789494 
L 304.553361 176.867248 
" style="fill:none;stroke:#ff0000;stroke-opacity:0.5;"/>
    <path clip-path="url(#p39a12e86c7)" d="M 233.733436 223.922384 
L 238.155964 216.78932 
L 242.599269 205.543826 
L 247.082054 190.95607 
L 251.611835 174.122068 
L 256.182763 156.389537 
L 260.77509 139.247755 
L 265.356717 124.182539 
L 269.887036 112.508473 
L 274.322772 105.202417 
L 278.624959 102.769784 
L 282.765721 105.173183 
L 286.733467 111.840453 
L 290.535461 121.749824 
L 294.1974 133.57168 
L 297.760353 145.836138 
L 301.275879 157.096192 
L 304.800271 166.064927 
L 308.388722 171.717191 
L 312.089888 173.356092 
" style="fill:none;stroke:#ff0000;stroke-opacity:0.5;"/>
    <path clip-path="url(#p39a12e86c7)" d="M 241.535021 215.797165 
L 245.967475 209.548247 
L 250.422185 200.037053 
L 254.911373 187.891486 
L 259.437298 173.997314 
L 263.990913 159.431863 
L 268.551983 145.371522 
L 273.090895 132.976337 
L 277.572224 123.262119 
L 281.959683 116.977602 
L 286.22175 114.508033 
L 290.336941 115.824496 
L 294.297737 120.489806 
L 298.112411 127.719479 
L 301.80453 136.48453 
L 305.410353 145.635829 
L 308.974738 154.029228 
L 312.546263 160.635442 
L 316.172193 164.625949 
L 319.893729 165.432774 
" style="fill:none;stroke:#ff0000;stroke-opacity:0.5;"/>
    <path clip-path="url(#p39a12e86c7)" d="M 249.490102 203.896298 
L 253.928318 198.894026 
L 258.376809 191.815314 
L 262.841624 183.075531 
L 267.321734 173.253723 
L 271.80851 163.043725 
L 276.286208 153.190907 
L 280.733535 144.418561 
L 285.126206 137.351059 
L 289.440225 132.443438 
L 293.65541 129.928012 
L 297.758602 129.786944 
L 301.746016 131.755602 
L 305.624323 135.355992 
L 309.410325 139.954203 
L 313.129306 144.832325 
L 316.812372 149.26431 
L 320.493157 152.586675 
L 324.204308 154.257697 
L 327.974073 153.90175 
" style="fill:none;stroke:#ff0000;stroke-opacity:0.5;"/>
    <path clip-path="url(#p39a12e86c7)" d="M 257.625295 189.424709 
L 262.05984 185.929986 
L 266.477766 181.777913 
L 270.880614 177.108156 
L 275.267397 172.112809 
L 279.634576 167.018107 
L 283.976362 162.062494 
L 288.285361 157.473008 
L 292.553474 153.442323 
L 296.772962 150.108953 
L 300.937536 147.542901 
L 305.043322 145.738514 
L 309.089564 144.615436 
L 313.078964 144.027466 
L 317.017601 143.778209 
L 320.914435 143.641547 
L 324.780457 143.384565 
L 328.627577 142.790473 
L 332.467374 141.679303 
L 336.309839 139.924582 
" style="fill:none;stroke:#ff0000;stroke-opacity:0.5;"/>
   </g>
  </g>
 </g>
 <defs>
  <clipPath id="p39a12e86c7">
   <rect height="221.76" width="334.8" x="54" y="34.56"/>
  </clipPath>
 </defs>
</svg>
